Unna-Italic.ufo
<glyph name="exclam" format="1">
  <advance width="263"/>
  <unicode hex="0021"/>
  <outline>
    <contour>
      <point x="169" y="637"/>
      <point x="149" y="619"/>
      <point x="145" y="588" type="curve" smooth="yes"/>
      <point x="143" y="570"/>
      <point x="142" y="547"/>
      <point x="143" y="520" type="curve" smooth="yes"/>
      <point x="144" y="428" type="line" smooth="yes"/>
      <point x="144" y="385"/>
      <point x="145" y="381"/>
      <point x="145" y="336" type="curve" smooth="yes"/>
      <point x="144" y="297"/>
      <point x="136" y="210"/>
      <point x="136" y="210" type="curve" smooth="yes"/>
      <point x="136" y="204"/>
      <point x="139" y="201"/>
      <point x="147" y="201" type="curve" smooth="yes"/>
      <point x="154" y="201"/>
      <point x="159" y="206"/>
      <point x="160" y="217" type="curve" smooth="yes"/>
      <point x="169" y="289"/>
      <point x="188" y="363"/>
      <point x="205" y="428" type="curve" smooth="yes"/>
      <point x="230" y="520" type="line" smooth="yes"/>
      <point x="238" y="552"/>
      <point x="245" y="578"/>
      <point x="245" y="597" type="curve" smooth="yes"/>
      <point x="245" y="622"/>
      <point x="229" y="637"/>
      <point x="200" y="637" type="curve" smooth="yes"/>
    </contour>
    <contour>
      <point x="63" y="13"/>
      <point x="89" y="-10"/>
      <point x="120" y="-10" type="curve" smooth="yes"/>
      <point x="156" y="-10"/>
      <point x="192" y="19"/>
      <point x="192" y="53" type="curve" smooth="yes"/>
      <point x="192" y="82"/>
      <point x="169" y="105"/>
      <point x="137" y="105" type="curve" smooth="yes"/>
      <point x="98" y="105"/>
      <point x="63" y="77"/>
      <point x="63" y="42" type="curve" smooth="yes"/>
    </contour>
  </outline>
</glyph>
<glyph name="numbersign" format="1">
  <advance width="489"/>
  <unicode hex="0023"/>
  <outline>
    <contour>
      <point x="449" y="639" type="line"/>
      <point x="365" y="445" type="line"/>
      <point x="257" y="445" type="line"/>
      <point x="342" y="639" type="line"/>
      <point x="301" y="639" type="line"/>
      <point x="216" y="445" type="line"/>
      <point x="119" y="445" type="line"/>
      <point x="104" y="405" type="line"/>
      <point x="200" y="405" type="line"/>
      <point x="126" y="234" type="line"/>
      <point x="31" y="234" type="line"/>
      <point x="14" y="194" type="line"/>
      <point x="109" y="194" type="line"/>
      <point x="22" y="-9" type="line"/>
      <point x="63" y="-9" type="line"/>
      <point x="151" y="194" type="line"/>
      <point x="258" y="194" type="line"/>
      <point x="170" y="-9" type="line"/>
      <point x="212" y="-9" type="line"/>
      <point x="300" y="194" type="line"/>
      <point x="397" y="194" type="line"/>
      <point x="415" y="234" type="line"/>
      <point x="317" y="234" type="line"/>
      <point x="390" y="405" type="line"/>
      <point x="489" y="405" type="line"/>
      <point x="504" y="445" type="line"/>
      <point x="407" y="445" type="line"/>
      <point x="491" y="639" type="line"/>
    </contour>
    <contour>
      <point x="276" y="234" type="line"/>
      <point x="168" y="234" type="line"/>
      <point x="242" y="405" type="line"/>
      <point x="349" y="405" type="line"/>
    </contour>
  </outline>
</glyph>
<glyph name="parenleft" format="1">
  <advance width="248"/>
  <unicode hex="0028"/>
  <outline>
    <contour>
      <point x="15" y="23"/>
      <point x="64" y="-118"/>
      <point x="142" y="-231" type="curve"/>
      <point x="186" y="-231" type="line"/>
      <point x="131" y="-144"/>
      <point x="108" y="29"/>
      <point x="108" y="149" type="curve" smooth="yes"/>
      <point x="108" y="323"/>
      <point x="198" y="579"/>
      <point x="318" y="711" type="curve"/>
      <point x="274" y="711" type="line"/>
      <point x="121" y="553"/>
      <point x="15" y="377"/>
      <point x="15" y="169" type="curve" smooth="yes"/>
    </contour>
  </outline>
</glyph>
<glyph name="asterisk" format="1">
  <advance width="327"/>
  <unicode hex="002A"/>
  <outline>
    <contour>
      <point x="261" y="630"/>
      <point x="237" y="619"/>
      <point x="237" y="599" type="curve" smooth="yes"/>
      <point x="237" y="595"/>
      <point x="239" y="590"/>
      <point x="239" y="583" type="curve" smooth="yes"/>
      <point x="239" y="570"/>
      <point x="223" y="542"/>
      <point x="208" y="532" type="curve"/>
      <point x="199" y="540"/>
      <point x="190" y="565"/>
      <point x="190" y="577" type="curve" smooth="yes"/>
      <point x="190" y="589"/>
      <point x="199" y="594"/>
      <point x="199" y="604" type="curve" smooth="yes"/>
      <point x="199" y="621"/>
      <point x="182" y="630"/>
      <point x="175" y="630" type="curve" smooth="yes"/>
      <point x="155" y="630"/>
      <point x="121" y="608"/>
      <point x="121" y="589" type="curve" smooth="yes"/>
      <point x="121" y="577"/>
      <point x="128" y="563"/>
      <point x="150" y="561" type="curve" smooth="yes"/>
      <point x="166" y="560"/>
      <point x="173" y="528"/>
      <point x="171" y="511" type="curve"/>
      <point x="167" y="509"/>
      <point x="160" y="506"/>
      <point x="146" y="506" type="curve" smooth="yes"/>
      <point x="106" y="506"/>
      <point x="122" y="530"/>
      <point x="97" y="530" type="curve" smooth="yes"/>
      <point x="71" y="530"/>
      <point x="57" y="521"/>
      <point x="57" y="481" type="curve" smooth="yes"/>
      <point x="57" y="461"/>
      <point x="65" y="454"/>
      <point x="87" y="454" type="curve" smooth="yes"/>
      <point x="113" y="454"/>
      <point x="101" y="478"/>
      <point x="142" y="478" type="curve" smooth="yes"/>
      <point x="152" y="478"/>
      <point x="162" y="476"/>
      <point x="165" y="473" type="curve"/>
      <point x="163" y="457"/>
      <point x="140" y="421"/>
      <point x="121" y="421" type="curve" smooth="yes"/>
      <point x="110" y="421"/>
      <point x="93" y="410"/>
      <point x="93" y="389" type="curve" smooth="yes"/>
      <point x="93" y="375"/>
      <point x="118" y="354"/>
      <point x="137" y="354" type="curve" smooth="yes"/>
      <point x="144" y="354"/>
      <point x="168" y="365"/>
      <point x="168" y="384" type="curve" smooth="yes"/>
      <point x="168" y="389"/>
      <point x="166" y="394"/>
      <point x="166" y="402" type="curve" smooth="yes"/>
      <point x="166" y="414"/>
      <point x="181" y="440"/>
      <point x="197" y="452" type="curve"/>
      <point x="206" y="444"/>
      <point x="214" y="419"/>
      <point x="214" y="407" type="curve" smooth="yes"/>
      <point x="214" y="395"/>
      <point x="207" y="389"/>
      <point x="207" y="380" type="curve" smooth="yes"/>
      <point x="207" y="363"/>
      <point x="223" y="354"/>
      <point x="230" y="354" type="curve" smooth="yes"/>
      <point x="252" y="354"/>
      <point x="284" y="380"/>
      <point x="284" y="396" type="curve" smooth="yes"/>
      <point x="284" y="422"/>
      <point x="263" y="419"/>
      <point x="253" y="424" type="curve"/>
      <point x="245" y="429"/>
      <point x="231" y="458"/>
      <point x="233" y="473" type="curve"/>
      <point x="237" y="475"/>
      <point x="243" y="478"/>
      <point x="259" y="478" type="curve" smooth="yes"/>
      <point x="299" y="478"/>
      <point x="283" y="454"/>
      <point x="308" y="454" type="curve" smooth="yes"/>
      <point x="334" y="454"/>
      <point x="348" y="463"/>
      <point x="348" y="503" type="curve" smooth="yes"/>
      <point x="348" y="523"/>
      <point x="340" y="530"/>
      <point x="318" y="530" type="curve" smooth="yes"/>
      <point x="292" y="530"/>
      <point x="303" y="506"/>
      <point x="263" y="506" type="curve" smooth="yes"/>
      <point x="251" y="506"/>
      <point x="243" y="508"/>
      <point x="238" y="511" type="curve"/>
      <point x="244" y="528"/>
      <point x="265" y="564"/>
      <point x="285" y="564" type="curve" smooth="yes"/>
      <point x="299" y="564"/>
      <point x="313" y="580"/>
      <point x="313" y="595" type="curve" smooth="yes"/>
      <point x="313" y="607"/>
      <point x="288" y="630"/>
      <point x="269" y="630" type="curve" smooth="yes"/>
    </contour>
  </outline>
</glyph>
<glyph name="comma" format="1">
  <advance width="243"/>
  <unicode hex="002C"/>
  <outline>
    <contour>
      <point x="66" y="92"/>
      <point x="32" y="64"/>
      <point x="32" y="30" type="curve" smooth="yes"/>
      <point x="32" y="15"/>
      <point x="38" y="-4"/>
      <point x="60" y="-4" type="curve" smooth="yes"/>
      <point x="76" y="-4"/>
      <point x="89" y="-9"/>
      <point x="89" y="-28" type="curve" smooth="yes"/>
      <point x="89" y="-61"/>
      <point x="42" y="-117"/>
      <point x="7" y="-148" type="curve"/>
      <point x="24" y="-160" type="line"/>
      <point x="75" y="-127"/>
      <point x="157" y="-56"/>
      <point x="157" y="27" type="curve" smooth="yes"/>
      <point x="157" y="68"/>
      <point x="138" y="92"/>
      <point x="98" y="92" type="curve" smooth="yes"/>
    </contour>
  </outline>
</glyph>
<glyph name="zero" format="1">
  <advance width="538"/>
  <unicode hex="0030"/>
  <outline>
    <contour>
      <point x="36" y="383"/>
      <point x="36" y="221" type="curve" smooth="yes"/>
      <point x="36" y="69"/>
      <point x="112" y="-10"/>
      <point x="237" y="-10" type="curve" smooth="yes"/>
      <point x="454" y="-10"/>
      <point x="526" y="215"/>
      <point x="526" y="373" type="curve" smooth="yes"/>
      <point x="526" y="529"/>
      <point x="445" y="607"/>
      <point x="323" y="607" type="curve" smooth="yes"/>
      <point x="110" y="607"/>
    </contour>
    <contour>
      <point x="161" y="512"/>
      <point x="225" y="580"/>
      <point x="320" y="580" type="curve" smooth="yes"/>
      <point x="397" y="580"/>
      <point x="442" y="542"/>
      <point x="442" y="415" type="curve" smooth="yes"/>
      <point x="442" y="382"/>
      <point x="439" y="344"/>
      <point x="433" y="298" type="curve" smooth="yes"/>
      <point x="403" y="83"/>
      <point x="338" y="20"/>
      <point x="241" y="20" type="curve" smooth="yes"/>
      <point x="166" y="20"/>
      <point x="121" y="56"/>
      <point x="121" y="180" type="curve" smooth="yes"/>
      <point x="121" y="213"/>
      <point x="125" y="252"/>
      <point x="131" y="298" type="curve" smooth="yes"/>
    </contour>
  </outline>
</glyph>
<glyph name="two" format="1">
  <advance width="506"/>
  <unicode hex="0032"/>
  <outline>
    <contour>
      <point x="140" y="607"/>
      <point x="87" y="520"/>
      <point x="87" y="463" type="curve" smooth="yes"/>
      <point x="87" y="430"/>
      <point x="102" y="412"/>
      <point x="130" y="412" type="curve" smooth="yes"/>
      <point x="160" y="412"/>
      <point x="182" y="429"/>
      <point x="182" y="454" type="curve" smooth="yes"/>
      <point x="182" y="468"/>
      <point x="177" y="478"/>
      <point x="177" y="494" type="curve" smooth="yes"/>
      <point x="177" y="538"/>
      <point x="208" y="580"/>
      <point x="283" y="580" type="curve" smooth="yes"/>
      <point x="342" y="580"/>
      <point x="374" y="545"/>
      <point x="374" y="481" type="curve" smooth="yes"/>
      <point x="374" y="370"/>
      <point x="314" y="289"/>
      <point x="156" y="156" type="curve" smooth="yes"/>
      <point x="24" y="45" type="line"/>
      <point x="20" y="0" type="line"/>
      <point x="347" y="0" type="line" smooth="yes"/>
      <point x="364" y="0"/>
      <point x="394" y="-1"/>
      <point x="400" y="-3" type="curve"/>
      <point x="405" y="21"/>
      <point x="417" y="64"/>
      <point x="449" y="165" type="curve"/>
      <point x="413" y="165" type="line"/>
      <point x="394" y="87"/>
      <point x="355" y="66"/>
      <point x="283" y="66" type="curve" smooth="yes"/>
      <point x="72" y="66" type="line"/>
      <point x="68" y="36" type="line"/>
      <point x="236" y="168" type="line" smooth="yes"/>
      <point x="440" y="330"/>
      <point x="463" y="396"/>
      <point x="463" y="478" type="curve" smooth="yes"/>
      <point x="463" y="555"/>
      <point x="395" y="607"/>
      <point x="294" y="607" type="curve" smooth="yes"/>
    </contour>
  </outline>
</glyph>
<glyph name="three" format="1">
  <advance width="499"/>
  <unicode hex="0033"/>
  <outline>
    <contour>
      <point x="350" y="336"/>
      <point x="464" y="402"/>
      <point x="464" y="501" type="curve" smooth="yes"/>
      <point x="464" y="565"/>
      <point x="399" y="607"/>
      <point x="301" y="607" type="curve" smooth="yes"/>
      <point x="183" y="607"/>
      <point x="86" y="547"/>
      <point x="86" y="473" type="curve" smooth="yes"/>
      <point x="86" y="450"/>
      <point x="98" y="432"/>
      <point x="129" y="432" type="curve" smooth="yes"/>
      <point x="154" y="432"/>
      <point x="183" y="445"/>
      <point x="183" y="478" type="curve" smooth="yes"/>
      <point x="183" y="491"/>
      <point x="177" y="500"/>
      <point x="177" y="512" type="curve" smooth="yes"/>
      <point x="177" y="553"/>
      <point x="228" y="580"/>
      <point x="285" y="580" type="curve" smooth="yes"/>
      <point x="339" y="580"/>
      <point x="375" y="550"/>
      <point x="375" y="505" type="curve" smooth="yes"/>
      <point x="375" y="406"/>
      <point x="276" y="341"/>
      <point x="177" y="327" type="curve"/>
      <point x="173" y="299" type="line"/>
      <point x="311" y="294"/>
      <point x="368" y="252"/>
      <point x="368" y="181" type="curve" smooth="yes"/>
      <point x="368" y="103"/>
      <point x="312" y="17"/>
      <point x="198" y="17" type="curve" smooth="yes"/>
      <point x="146" y="17"/>
      <point x="102" y="36"/>
      <point x="102" y="70" type="curve" smooth="yes"/>
      <point x="102" y="96"/>
      <point x="120" y="107"/>
      <point x="120" y="131" type="curve" smooth="yes"/>
      <point x="120" y="151"/>
      <point x="105" y="165"/>
      <point x="78" y="165" type="curve" smooth="yes"/>
      <point x="42" y="165"/>
      <point x="21" y="140"/>
      <point x="21" y="104" type="curve" smooth="yes"/>
      <point x="21" y="42"/>
      <point x="91" y="-10"/>
      <point x="203" y="-10" type="curve" smooth="yes"/>
      <point x="356" y="-10"/>
      <point x="458" y="68"/>
      <point x="458" y="185" type="curve" smooth="yes"/>
      <point x="458" y="268"/>
      <point x="385" y="314"/>
      <point x="234" y="318" type="curve"/>
      <point x="234" y="320" type="line"/>
    </contour>
  </outline>
</glyph>
<glyph name="four" format="1">
  <advance width="470"/>
  <unicode hex="0034"/>
  <outline>
    <contour>
      <point x="394" y="604" type="line"/>
      <point x="370" y="576" type="line"/>
      <point x="350" y="554" type="line"/>
      <point x="85" y="276" type="line"/>
      <point x="52" y="245" type="line"/>
      <point x="40" y="233"/>
      <point x="28" y="223"/>
      <point x="18" y="215" type="curve"/>
      <point x="9" y="155" type="line"/>
      <point x="278" y="155" type="line"/>
      <point x="263" y="43" type="line" smooth="yes"/>
      <point x="261" y="30"/>
      <point x="255" y="23"/>
      <point x="242" y="23" type="curve" smooth="yes"/>
      <point x="175" y="24" type="line"/>
      <point x="172" y="0" type="line"/>
      <point x="400" y="0" type="line"/>
      <point x="403" y="24" type="line"/>
      <point x="357" y="23" type="line" smooth="yes"/>
      <point x="345" y="23"/>
      <point x="339" y="30"/>
      <point x="341" y="43" type="curve" smooth="yes"/>
      <point x="356" y="155" type="line"/>
      <point x="436" y="155" type="line"/>
      <point x="446" y="224" type="line"/>
      <point x="366" y="224" type="line"/>
      <point x="419" y="604" type="line"/>
    </contour>
    <contour>
      <point x="288" y="224" type="line"/>
      <point x="74" y="224" type="line"/>
      <point x="325" y="488" type="line"/>
    </contour>
  </outline>
</glyph>
<glyph name="six" format="1">
  <advance width="487"/>
  <unicode hex="0036"/>
  <outline>
    <contour>
      <point x="49" y="440"/>
      <point x="49" y="189" type="curve" smooth="yes"/>
      <point x="49" y="59"/>
      <point x="108" y="-11"/>
      <point x="219" y="-11" type="curve" smooth="yes"/>
      <point x="362" y="-11"/>
      <point x="458" y="89"/>
      <point x="458" y="238" type="curve" smooth="yes"/>
      <point x="458" y="335"/>
      <point x="394" y="399"/>
      <point x="298" y="399" type="curve" smooth="yes"/>
      <point x="217" y="399"/>
      <point x="163" y="355"/>
      <point x="135" y="292" type="curve"/>
      <point x="146" y="302" type="line"/>
      <point x="164" y="450"/>
      <point x="227" y="579"/>
      <point x="324" y="579" type="curve" smooth="yes"/>
      <point x="360" y="579"/>
      <point x="384" y="561"/>
      <point x="384" y="536" type="curve" smooth="yes"/>
      <point x="384" y="513"/>
      <point x="370" y="509"/>
      <point x="370" y="488" type="curve" smooth="yes"/>
      <point x="370" y="468"/>
      <point x="387" y="457"/>
      <point x="410" y="457" type="curve" smooth="yes"/>
      <point x="450" y="457"/>
      <point x="471" y="486"/>
      <point x="471" y="516" type="curve" smooth="yes"/>
      <point x="471" y="564"/>
      <point x="412" y="607"/>
      <point x="339" y="607" type="curve" smooth="yes"/>
      <point x="165" y="607"/>
    </contour>
    <contour>
      <point x="163" y="372"/>
      <point x="280" y="372" type="curve" smooth="yes"/>
      <point x="353" y="372"/>
      <point x="372" y="310"/>
      <point x="372" y="246" type="curve" smooth="yes"/>
      <point x="372" y="167"/>
      <point x="349" y="14"/>
      <point x="232" y="14" type="curve" smooth="yes"/>
      <point x="155" y="14"/>
      <point x="126" y="78"/>
      <point x="126" y="151" type="curve" smooth="yes"/>
      <point x="126" y="228"/>
    </contour>
  </outline>
</glyph>
<glyph name="seven" format="1">
  <advance width="428"/>
  <unicode hex="0037"/>
  <outline>
    <contour>
      <point x="97" y="581"/>
      <point x="78" y="510"/>
      <point x="67" y="472" type="curve"/>
      <point x="103" y="472" type="line"/>
      <point x="115" y="514"/>
      <point x="142" y="530"/>
      <point x="200" y="530" type="curve" smooth="yes"/>
      <point x="435" y="530" type="line"/>
      <point x="440" y="561" type="line"/>
      <point x="188" y="331"/>
      <point x="135" y="152"/>
      <point x="111" y="0" type="curve"/>
      <point x="205" y="0" type="line"/>
      <point x="215" y="181"/>
      <point x="284" y="376"/>
      <point x="470" y="555" type="curve"/>
      <point x="472" y="597" type="line"/>
      <point x="219" y="597" type="line" smooth="yes"/>
      <point x="158" y="597"/>
      <point x="113" y="597"/>
      <point x="100" y="600" type="curve"/>
    </contour>
  </outline>
</glyph>
<glyph name="eight" format="1">
  <advance width="494"/>
  <unicode hex="0038"/>
  <outline>
    <contour>
      <point x="421" y="346"/>
      <point x="487" y="421"/>
      <point x="487" y="494" type="curve" smooth="yes"/>
      <point x="487" y="562"/>
      <point x="421" y="607"/>
      <point x="322" y="607" type="curve" smooth="yes"/>
      <point x="187" y="607"/>
      <point x="97" y="539"/>
      <point x="97" y="438" type="curve" smooth="yes"/>
      <point x="97" y="376"/>
      <point x="142" y="337"/>
      <point x="208" y="298" type="curve" smooth="yes"/>
      <point x="273" y="260"/>
      <point x="358" y="217"/>
      <point x="358" y="138" type="curve" smooth="yes"/>
      <point x="358" y="59"/>
      <point x="292" y="17"/>
      <point x="213" y="17" type="curve" smooth="yes"/>
      <point x="140" y="17"/>
      <point x="92" y="57"/>
      <point x="92" y="117" type="curve" smooth="yes"/>
      <point x="92" y="191"/>
      <point x="159" y="266"/>
      <point x="226" y="294" type="curve"/>
      <point x="203" y="307" type="line"/>
      <point x="108" y="275"/>
      <point x="25" y="202"/>
      <point x="25" y="111" type="curve" smooth="yes"/>
      <point x="25" y="38"/>
      <point x="97" y="-10"/>
      <point x="204" y="-10" type="curve" smooth="yes"/>
      <point x="356" y="-10"/>
      <point x="457" y="63"/>
      <point x="457" y="173" type="curve" smooth="yes"/>
      <point x="457" y="249"/>
      <point x="385" y="293"/>
      <point x="315" y="335" type="curve" smooth="yes"/>
      <point x="253" y="373"/>
      <point x="193" y="408"/>
      <point x="193" y="470" type="curve" smooth="yes"/>
      <point x="193" y="537"/>
      <point x="248" y="580"/>
      <point x="325" y="580" type="curve" smooth="yes"/>
      <point x="385" y="580"/>
      <point x="425" y="546"/>
      <point x="425" y="496" type="curve" smooth="yes"/>
      <point x="425" y="430"/>
      <point x="388" y="373"/>
      <point x="299" y="337" type="curve"/>
      <point x="321" y="325" type="line"/>
    </contour>
  </outline>
</glyph>
<glyph name="equal" format="1">
  <advance width="444"/>
  <unicode hex="003D"/>
  <outline>
    <contour>
      <point x="52" y="345" type="line"/>
      <point x="46" y="302" type="line"/>
      <point x="422" y="302" type="line"/>
      <point x="428" y="345" type="line"/>
    </contour>
    <contour>
      <point x="24" y="146" type="line"/>
      <point x="18" y="103" type="line"/>
      <point x="394" y="103" type="line"/>
      <point x="400" y="146" type="line"/>
    </contour>
  </outline>
</glyph>
<glyph name="A" format="1">
  <advance width="580"/>
  <unicode hex="0041"/>
  <outline>
    <contour>
      <point x="326" y="607" type="line"/>
      <point x="53" y="104" type="line" smooth="yes"/>
      <point x="28" y="58"/>
      <point x="8" y="27"/>
      <point x="-16" y="27" type="curve"/>
      <point x="-47" y="29" type="line"/>
      <point x="-51" y="0" type="line"/>
      <point x="119" y="0" type="line"/>
      <point x="123" y="29" type="line"/>
      <point x="72" y="26" type="line"/>
      <point x="62" y="26"/>
      <point x="58" y="32"/>
      <point x="58" y="41" type="curve" smooth="yes"/>
      <point x="58" y="56"/>
      <point x="68" y="76"/>
      <point x="79" y="96" type="curve" smooth="yes"/>
      <point x="293" y="494" type="line"/>
      <point x="355" y="607" type="line"/>
    </contour>
    <contour>
      <point x="145" y="236" type="line"/>
      <point x="132" y="208" type="line"/>
      <point x="368" y="208" type="line"/>
      <point x="362" y="236" type="line"/>
    </contour>
    <contour>
      <point x="285" y="495" type="line"/>
      <point x="392" y="90" type="line" smooth="yes"/>
      <point x="395" y="80"/>
      <point x="396" y="67"/>
      <point x="396" y="58" type="curve" smooth="yes"/>
      <point x="396" y="40"/>
      <point x="389" y="26"/>
      <point x="369" y="27" type="curve" smooth="yes"/>
      <point x="316" y="29" type="line"/>
      <point x="312" y="0" type="line"/>
      <point x="571" y="0" type="line"/>
      <point x="575" y="29" type="line"/>
      <point x="541" y="27" type="line"/>
      <point x="536" y="27" type="line" smooth="yes"/>
      <point x="509" y="27"/>
      <point x="499" y="53"/>
      <point x="486" y="102" type="curve" smooth="yes"/>
      <point x="355" y="607" type="line"/>
    </contour>
    <contour>
      <point x="561" y="14" type="move" name="ogonek"/>
    </contour>
    <contour>
      <point x="349" y="598" type="move" name="top"/>
    </contour>
  </outline>
</glyph>
<glyph name="B" format="1">
  <advance width="555"/>
  <unicode hex="0042"/>
  <outline>
    <contour>
      <point x="102" y="597" type="line"/>
      <point x="98" y="567" type="line"/>
      <point x="149" y="569" type="line" smooth="yes"/>
      <point x="158" y="569"/>
      <point x="161" y="558"/>
      <point x="160" y="549" type="curve" smooth="yes"/>
      <point x="90" y="49" type="line" smooth="yes"/>
      <point x="88" y="34"/>
      <point x="82" y="27"/>
      <point x="72" y="27" type="curve" smooth="yes"/>
      <point x="22" y="29" type="line"/>
      <point x="18" y="0" type="line"/>
      <point x="272" y="0" type="line" smooth="yes"/>
      <point x="432" y="0"/>
      <point x="511" y="64"/>
      <point x="511" y="180" type="curve" smooth="yes"/>
      <point x="511" y="259"/>
      <point x="450" y="317"/>
      <point x="366" y="317" type="curve"/>
      <point x="455" y="333"/>
      <point x="521" y="391"/>
      <point x="521" y="476" type="curve" smooth="yes"/>
      <point x="521" y="556"/>
      <point x="468" y="597"/>
      <point x="370" y="597" type="curve" smooth="yes"/>
    </contour>
    <contour>
      <point x="381" y="299"/>
      <point x="415" y="263"/>
      <point x="415" y="191" type="curve" smooth="yes"/>
      <point x="415" y="87"/>
      <point x="349" y="28"/>
      <point x="260" y="28" type="curve" smooth="yes"/>
      <point x="192" y="28" type="line" smooth="yes"/>
      <point x="184" y="28"/>
      <point x="180" y="32"/>
      <point x="182" y="41" type="curve"/>
      <point x="218" y="299" type="line"/>
      <point x="316" y="299" type="line" smooth="yes"/>
    </contour>
    <contour>
      <point x="389" y="569"/>
      <point x="425" y="532"/>
      <point x="425" y="471" type="curve" smooth="yes"/>
      <point x="425" y="382"/>
      <point x="383" y="327"/>
      <point x="294" y="327" type="curve" smooth="yes"/>
      <point x="222" y="327" type="line"/>
      <point x="254" y="557" type="line"/>
      <point x="256" y="565"/>
      <point x="261" y="569"/>
      <point x="266" y="569" type="curve" smooth="yes"/>
      <point x="322" y="569" type="line" smooth="yes"/>
    </contour>
  </outline>
</glyph>
<glyph name="C" format="1">
  <advance width="585"/>
  <unicode hex="0043"/>
  <outline>
    <contour>
      <point x="49" y="87"/>
      <point x="140" y="-10"/>
      <point x="297" y="-10" type="curve" smooth="yes"/>
      <point x="398" y="-10"/>
      <point x="443" y="35"/>
      <point x="509" y="35" type="curve" smooth="yes"/>
      <point x="516" y="35" type="line"/>
      <point x="516" y="47" type="line"/>
      <point x="516" y="73"/>
      <point x="519" y="89"/>
      <point x="538" y="167" type="curve"/>
      <point x="507" y="167" type="line"/>
      <point x="477" y="82"/>
      <point x="395" y="17"/>
      <point x="305" y="17" type="curve" smooth="yes"/>
      <point x="207" y="17"/>
      <point x="150" y="108"/>
      <point x="150" y="240" type="curve" smooth="yes"/>
      <point x="150" y="432"/>
      <point x="244" y="582"/>
      <point x="380" y="582" type="curve" smooth="yes"/>
      <point x="466" y="582"/>
      <point x="534" y="515"/>
      <point x="540" y="433" type="curve"/>
      <point x="566" y="433" type="line"/>
      <point x="565" y="434"/>
      <point x="565" y="441"/>
      <point x="565" y="448" type="curve" smooth="yes"/>
      <point x="565" y="467"/>
      <point x="572" y="518"/>
      <point x="584" y="564" type="curve"/>
      <point x="505" y="564"/>
      <point x="507" y="607"/>
      <point x="388" y="607" type="curve" smooth="yes"/>
      <point x="181" y="607"/>
      <point x="49" y="466"/>
      <point x="49" y="245" type="curve" smooth="yes"/>
    </contour>
    <contour>
      <point x="357" y="598" type="move" name="top"/>
    </contour>
    <contour>
      <point x="263" y="0" type="move" name="bottom"/>
    </contour>
  </outline>
</glyph>
<glyph name="D" format="1">
  <advance width="613"/>
  <unicode hex="0044"/>
  <outline>
    <contour>
      <point x="102" y="597" type="line"/>
      <point x="98" y="567" type="line"/>
      <point x="137" y="569" type="line" smooth="yes"/>
      <point x="148" y="569"/>
      <point x="153" y="559"/>
      <point x="151" y="548" type="curve" smooth="yes"/>
      <point x="81" y="49" type="line" smooth="yes"/>
      <point x="79" y="37"/>
      <point x="74" y="27"/>
      <point x="65" y="27" type="curve" smooth="yes"/>
      <point x="22" y="29" type="line"/>
      <point x="18" y="0" type="line"/>
      <point x="248" y="0" type="line" smooth="yes"/>
      <point x="481" y="0"/>
      <point x="588" y="134"/>
      <point x="588" y="362" type="curve" smooth="yes"/>
      <point x="588" y="531"/>
      <point x="497" y="597"/>
      <point x="320" y="597" type="curve" smooth="yes"/>
    </contour>
    <contour>
      <point x="431" y="569"/>
      <point x="487" y="512"/>
      <point x="487" y="373" type="curve" smooth="yes"/>
      <point x="487" y="308"/>
      <point x="477" y="250"/>
      <point x="464" y="202" type="curve" smooth="yes"/>
      <point x="434" y="91"/>
      <point x="380" y="28"/>
      <point x="224" y="28" type="curve" smooth="yes"/>
      <point x="180" y="28" type="line" smooth="yes"/>
      <point x="174" y="28"/>
      <point x="170" y="32"/>
      <point x="172" y="41" type="curve"/>
      <point x="244" y="556" type="line" smooth="yes"/>
      <point x="245" y="565"/>
      <point x="250" y="569"/>
      <point x="256" y="569" type="curve" smooth="yes"/>
      <point x="300" y="569" type="line" smooth="yes"/>
    </contour>
    <contour>
      <point x="312" y="299" type="move" name="center"/>
    </contour>
    <contour>
      <point x="362" y="598" type="move" name="top"/>
    </contour>
  </outline>
</glyph>
<glyph name="F" format="1">
  <advance width="513"/>
  <unicode hex="0046"/>
  <outline>
    <contour>
      <point x="533" y="597"/>
      <point x="528" y="597"/>
      <point x="522" y="597" type="curve" smooth="yes"/>
      <point x="102" y="597" type="line"/>
      <point x="98" y="567" type="line"/>
      <point x="139" y="569" type="line"/>
      <point x="148" y="569"/>
      <point x="153" y="562"/>
      <point x="151" y="548" type="curve" smooth="yes"/>
      <point x="81" y="49" type="line" smooth="yes"/>
      <point x="79" y="34"/>
      <point x="72" y="27"/>
      <point x="62" y="27" type="curve"/>
      <point x="22" y="30" type="line"/>
      <point x="18" y="0" type="line"/>
      <point x="235" y="0" type="line"/>
      <point x="239" y="30" type="line"/>
      <point x="187" y="27" type="line" smooth="yes"/>
      <point x="178" y="27"/>
      <point x="171" y="36"/>
      <point x="173" y="48" type="curve" smooth="yes"/>
      <point x="207" y="287" type="line"/>
      <point x="277" y="287" type="line" smooth="yes"/>
      <point x="322" y="287"/>
      <point x="347" y="248"/>
      <point x="338" y="187" type="curve"/>
      <point x="367" y="187" type="line"/>
      <point x="400" y="417" type="line"/>
      <point x="371" y="417" type="line"/>
      <point x="362" y="353"/>
      <point x="326" y="315"/>
      <point x="281" y="315" type="curve" smooth="yes"/>
      <point x="210" y="315" type="line"/>
      <point x="244" y="556" type="line" smooth="yes"/>
      <point x="245" y="565"/>
      <point x="250" y="569"/>
      <point x="256" y="569" type="curve" smooth="yes"/>
      <point x="369" y="569" type="line" smooth="yes"/>
      <point x="464" y="569"/>
      <point x="500" y="531"/>
      <point x="487" y="443" type="curve"/>
      <point x="516" y="443" type="line"/>
      <point x="538" y="599" type="line"/>
    </contour>
  </outline>
</glyph>
<glyph name="G" format="1">
  <advance width="626"/>
  <unicode hex="0047"/>
  <outline>
    <contour>
      <point x="175" y="607"/>
      <point x="49" y="476"/>
      <point x="49" y="239" type="curve" smooth="yes"/>
      <point x="49" y="74"/>
      <point x="141" y="-10"/>
      <point x="298" y="-10" type="curve"/>
      <point x="426" y="-10"/>
      <point x="471" y="36"/>
      <point x="509" y="36" type="curve" smooth="yes"/>
      <point x="513" y="36"/>
      <point x="517" y="36"/>
      <point x="523" y="35" type="curve"/>
      <point x="550" y="224" type="line" smooth="yes"/>
      <point x="551" y="235"/>
      <point x="559" y="245"/>
      <point x="569" y="245" type="curve" smooth="yes"/>
      <point x="611" y="243" type="line"/>
      <point x="615" y="272" type="line"/>
      <point x="389" y="272" type="line"/>
      <point x="385" y="243" type="line"/>
      <point x="443" y="245" type="line" smooth="yes"/>
      <point x="455" y="245"/>
      <point x="459" y="238"/>
      <point x="457" y="223" type="curve" smooth="yes"/>
      <point x="434" y="63" type="line"/>
      <point x="395" y="27"/>
      <point x="362" y="17"/>
      <point x="306" y="17" type="curve" smooth="yes"/>
      <point x="207" y="17"/>
      <point x="149" y="81"/>
      <point x="149" y="224" type="curve" smooth="yes"/>
      <point x="149" y="460"/>
      <point x="254" y="582"/>
      <point x="381" y="582" type="curve" smooth="yes"/>
      <point x="468" y="582"/>
      <point x="530" y="547"/>
      <point x="530" y="467" type="curve" smooth="yes"/>
      <point x="530" y="443"/>
      <point x="527" y="438"/>
      <point x="525" y="433" type="curve"/>
      <point x="567" y="433" type="line"/>
      <point x="566" y="468"/>
      <point x="578" y="540"/>
      <point x="585" y="564" type="curve"/>
      <point x="537" y="564"/>
      <point x="515" y="607"/>
      <point x="389" y="607" type="curve" smooth="yes"/>
    </contour>
    <contour>
      <point x="353" y="598" type="move" name="top"/>
    </contour>
    <contour>
      <point x="283" y="0" type="move" name="bottom"/>
    </contour>
  </outline>
</glyph>
<glyph name="I" format="1">
  <advance width="301"/>
  <unicode hex="0049"/>
  <outline>
    <contour>
      <point x="102" y="597" type="line"/>
      <point x="98" y="567" type="line"/>
      <point x="137" y="569" type="line" smooth="yes"/>
      <point x="148" y="569"/>
      <point x="153" y="560"/>
      <point x="151" y="548" type="curve" smooth="yes"/>
      <point x="81" y="49" type="line" smooth="yes"/>
      <point x="79" y="34"/>
      <point x="72" y="27"/>
      <point x="61" y="27" type="curve" smooth="yes"/>
      <point x="22" y="29" type="line"/>
      <point x="18" y="0" type="line"/>
      <point x="223" y="0" type="line"/>
      <point x="227" y="29" type="line"/>
      <point x="188" y="27" type="line"/>
      <point x="177" y="27"/>
      <point x="171" y="34"/>
      <point x="173" y="49" type="curve" smooth="yes"/>
      <point x="243" y="548" type="line" smooth="yes"/>
      <point x="245" y="561"/>
      <point x="253" y="569"/>
      <point x="264" y="569" type="curve" smooth="yes"/>
      <point x="303" y="567" type="line"/>
      <point x="307" y="597" type="line"/>
    </contour>
    <contour>
      <point x="190" y="14" type="move" name="ogonek"/>
    </contour>
    <contour>
      <point x="203" y="598" type="move" name="top"/>
    </contour>
  </outline>
</glyph>
<glyph name="J" format="1">
  <advance width="437"/>
  <unicode hex="004A"/>
  <outline>
    <contour>
      <point x="214" y="597" type="line"/>
      <point x="210" y="567" type="line"/>
      <point x="279" y="569" type="line" smooth="yes"/>
      <point x="288" y="569"/>
      <point x="294" y="561"/>
      <point x="292" y="548" type="curve" smooth="yes"/>
      <point x="240" y="179" type="line" smooth="yes"/>
      <point x="223" y="59"/>
      <point x="193" y="16"/>
      <point x="132" y="16" type="curve" smooth="yes"/>
      <point x="53" y="16"/>
      <point x="45" y="113"/>
      <point x="54" y="172" type="curve"/>
      <point x="17" y="172" type="line"/>
      <point x="-8" y="-4" type="line"/>
      <point x="3" y="3"/>
      <point x="15" y="5"/>
      <point x="28" y="5" type="curve" smooth="yes"/>
      <point x="53" y="5"/>
      <point x="89" y="-10"/>
      <point x="144" y="-10" type="curve" smooth="yes"/>
      <point x="250" y="-10"/>
      <point x="315" y="51"/>
      <point x="333" y="179" type="curve" smooth="yes"/>
      <point x="385" y="549" type="line" smooth="yes"/>
      <point x="387" y="561"/>
      <point x="394" y="569"/>
      <point x="406" y="569" type="curve" smooth="yes"/>
      <point x="443" y="567" type="line"/>
      <point x="447" y="597" type="line"/>
    </contour>
    <contour>
      <point x="328" y="598" type="move" name="top"/>
    </contour>
  </outline>
</glyph>
<glyph name="P" format="1">
  <advance width="507"/>
  <unicode hex="0050"/>
  <outline>
    <contour>
      <point x="102" y="597" type="line"/>
      <point x="98" y="567" type="line"/>
      <point x="136" y="569" type="line" smooth="yes"/>
      <point x="150" y="570"/>
      <point x="153" y="560"/>
      <point x="151" y="547" type="curve" smooth="yes"/>
      <point x="81" y="49" type="line" smooth="yes"/>
      <point x="79" y="34"/>
      <point x="72" y="27"/>
      <point x="61" y="27" type="curve" smooth="yes"/>
      <point x="22" y="29" type="line"/>
      <point x="18" y="0" type="line"/>
      <point x="233" y="0" type="line"/>
      <point x="237" y="29" type="line"/>
      <point x="188" y="27" type="line"/>
      <point x="177" y="27"/>
      <point x="171" y="34"/>
      <point x="173" y="49" type="curve" smooth="yes"/>
      <point x="203" y="263" type="line"/>
      <point x="303" y="263" type="line" smooth="yes"/>
      <point x="426" y="263"/>
      <point x="507" y="345"/>
      <point x="507" y="463" type="curve" smooth="yes"/>
      <point x="507" y="552"/>
      <point x="451" y="597"/>
      <point x="330" y="597" type="curve" smooth="yes"/>
    </contour>
    <contour>
      <point x="374" y="569"/>
      <point x="411" y="524"/>
      <point x="411" y="458" type="curve" smooth="yes"/>
      <point x="411" y="366"/>
      <point x="353" y="291"/>
      <point x="287" y="291" type="curve" smooth="yes"/>
      <point x="207" y="291" type="line"/>
      <point x="244" y="557" type="line" smooth="yes"/>
      <point x="245" y="564"/>
      <point x="252" y="569"/>
      <point x="256" y="569" type="curve" smooth="yes"/>
      <point x="310" y="569" type="line" smooth="yes"/>
    </contour>
  </outline>
</glyph>
<glyph name="R" format="1">
  <advance width="563"/>
  <unicode hex="0052"/>
  <outline>
    <contour>
      <point x="102" y="597" type="line"/>
      <point x="98" y="567" type="line"/>
      <point x="133" y="569" type="line"/>
      <point x="150" y="569"/>
      <point x="152" y="559"/>
      <point x="150" y="542" type="curve" smooth="yes"/>
      <point x="81" y="49" type="line" smooth="yes"/>
      <point x="79" y="34"/>
      <point x="72" y="27"/>
      <point x="61" y="27" type="curve"/>
      <point x="22" y="29" type="line"/>
      <point x="18" y="0" type="line"/>
      <point x="233" y="0" type="line"/>
      <point x="237" y="29" type="line"/>
      <point x="188" y="27" type="line"/>
      <point x="178" y="27"/>
      <point x="173" y="33"/>
      <point x="173" y="41" type="curve"/>
      <point x="206" y="286" type="line"/>
      <point x="252.707" y="286" type="line"/>
      <point x="318.512" y="283.186"/>
      <point x="377" y="249.666"/>
      <point x="377" y="161" type="curve" smooth="yes"/>
      <point x="377" y="134"/>
      <point x="371" y="93"/>
      <point x="371" y="64" type="curve" smooth="yes"/>
      <point x="371" y="11"/>
      <point x="391" y="-10"/>
      <point x="431" y="-10" type="curve" smooth="yes"/>
      <point x="462" y="-10"/>
      <point x="498" y="1.99999"/>
      <point x="518" y="13" type="curve"/>
      <point x="510" y="32" type="line"/>
      <point x="504" y="28"/>
      <point x="497" y="26"/>
      <point x="489" y="26" type="curve" smooth="yes"/>
      <point x="468" y="26"/>
      <point x="460" y="40"/>
      <point x="460" y="69" type="curve" smooth="yes"/>
      <point x="460" y="89"/>
      <point x="464" y="149"/>
      <point x="464" y="172" type="curve" smooth="yes"/>
      <point x="464" y="238.789"/>
      <point x="434.798" y="286.995"/>
      <point x="364.74" y="296.64" type="curve"/>
      <point x="441.09" y="317.24"/>
      <point x="505" y="374.36"/>
      <point x="505" y="468" type="curve" smooth="yes"/>
      <point x="505" y="557"/>
      <point x="447" y="597"/>
      <point x="320" y="597" type="curve" smooth="yes"/>
    </contour>
    <contour>
      <point x="383" y="569"/>
      <point x="412" y="538"/>
      <point x="412" y="465" type="curve" smooth="yes"/>
      <point x="412" y="373"/>
      <point x="366" y="313"/>
      <point x="299" y="313" type="curve" smooth="yes"/>
      <point x="210" y="313" type="line"/>
      <point x="245" y="559" type="line" smooth="yes"/>
      <point x="246" y="566"/>
      <point x="250" y="569"/>
      <point x="256" y="569" type="curve" smooth="yes"/>
      <point x="316" y="569" type="line" smooth="yes"/>
    </contour>
    <contour>
      <point x="334" y="598" type="move" name="top"/>
    </contour>
    <contour>
      <point x="251" y="0" type="move" name="bottom"/>
    </contour>
  </outline>
</glyph>
<glyph name="U" format="1">
  <advance width="631"/>
  <unicode hex="0055"/>
  <outline>
    <contour>
      <point x="503" y="597" type="line"/>
      <point x="499" y="567" type="line"/>
      <point x="548" y="569" type="line" smooth="yes"/>
      <point x="558" y="569"/>
      <point x="563" y="561"/>
      <point x="561" y="548" type="curve" smooth="yes"/>
      <point x="512" y="198" type="line" smooth="yes"/>
      <point x="495" y="82"/>
      <point x="438" y="26"/>
      <point x="324" y="26" type="curve" smooth="yes"/>
      <point x="217" y="26"/>
      <point x="164" y="92"/>
      <point x="180" y="199" type="curve" smooth="yes"/>
      <point x="229" y="549" type="line" smooth="yes"/>
      <point x="231" y="562"/>
      <point x="239" y="569"/>
      <point x="250" y="569" type="curve" smooth="yes"/>
      <point x="299" y="567" type="line"/>
      <point x="303" y="597" type="line"/>
      <point x="88" y="597" type="line"/>
      <point x="84" y="567" type="line"/>
      <point x="123" y="569" type="line" smooth="yes"/>
      <point x="132" y="569"/>
      <point x="138" y="560"/>
      <point x="136" y="548" type="curve" smooth="yes"/>
      <point x="87" y="199" type="line" smooth="yes"/>
      <point x="68" y="62"/>
      <point x="147" y="-10"/>
      <point x="303" y="-10" type="curve" smooth="yes"/>
      <point x="448" y="-10"/>
      <point x="529" y="54"/>
      <point x="548" y="189" type="curve" smooth="yes"/>
      <point x="599" y="549" type="line" smooth="yes"/>
      <point x="601" y="562"/>
      <point x="608" y="569"/>
      <point x="618" y="569" type="curve" smooth="yes"/>
      <point x="657" y="567" type="line"/>
      <point x="661" y="597" type="line"/>
    </contour>
    <contour>
      <point x="432" y="14" type="move" name="ogonek"/>
    </contour>
    <contour>
      <point x="378" y="598" type="move" name="top"/>
    </contour>
  </outline>
</glyph>
<glyph name="V" format="1">
  <advance width="564"/>
  <unicode hex="0056"/>
  <outline>
    <contour>
      <point x="485" y="597" type="line"/>
      <point x="481" y="567" type="line"/>
      <point x="532" y="569" type="line"/>
      <point x="545" y="569"/>
      <point x="541" y="555"/>
      <point x="536" y="546" type="curve" smooth="yes"/>
      <point x="299" y="112" type="line"/>
      <point x="317" y="112" type="line"/>
      <point x="192" y="545" type="line" smooth="yes"/>
      <point x="188" y="558"/>
      <point x="192" y="569"/>
      <point x="202" y="569" type="curve" smooth="yes"/>
      <point x="255" y="567" type="line"/>
      <point x="259" y="597" type="line"/>
      <point x="49" y="597" type="line"/>
      <point x="45" y="567" type="line"/>
      <point x="73" y="569" type="line" smooth="yes"/>
      <point x="80" y="569"/>
      <point x="87" y="561"/>
      <point x="91" y="546" type="curve" smooth="yes"/>
      <point x="246" y="-4" type="line"/>
      <point x="275" y="-4" type="line"/>
      <point x="577" y="546" type="line" smooth="yes"/>
      <point x="585" y="561"/>
      <point x="590" y="569"/>
      <point x="599" y="569" type="curve" smooth="yes"/>
      <point x="635" y="567" type="line"/>
      <point x="639" y="597" type="line"/>
    </contour>
  </outline>
</glyph>
<glyph name="W" format="1">
  <advance width="854"/>
  <unicode hex="0057"/>
  <outline>
    <contour>
      <point x="778" y="597" type="line"/>
      <point x="774" y="567" type="line"/>
      <point x="826" y="569" type="line" smooth="yes"/>
      <point x="839" y="569"/>
      <point x="836" y="558"/>
      <point x="832" y="549" type="curve" smooth="yes"/>
      <point x="642" y="111" type="line"/>
      <point x="666" y="109" type="line"/>
      <point x="552" y="547" type="line" smooth="yes"/>
      <point x="548" y="561"/>
      <point x="553" y="569"/>
      <point x="561" y="569" type="curve" smooth="yes"/>
      <point x="605" y="567" type="line"/>
      <point x="609" y="597" type="line"/>
      <point x="406" y="597" type="line"/>
      <point x="402" y="567" type="line"/>
      <point x="443" y="569" type="line" smooth="yes"/>
      <point x="453" y="569"/>
      <point x="456" y="565"/>
      <point x="458" y="557" type="curve" smooth="yes"/>
      <point x="602" y="-10" type="line"/>
      <point x="620" y="-10" type="line"/>
      <point x="869" y="548" type="line" smooth="yes"/>
      <point x="874" y="558"/>
      <point x="882" y="569"/>
      <point x="894" y="569" type="curve"/>
      <point x="925" y="567" type="line"/>
      <point x="929" y="597" type="line"/>
    </contour>
    <contour>
      <point x="49" y="597" type="line"/>
      <point x="45" y="567" type="line"/>
      <point x="75" y="569" type="line" smooth="yes"/>
      <point x="83" y="569"/>
      <point x="88" y="562"/>
      <point x="91" y="547" type="curve" smooth="yes"/>
      <point x="221" y="-10" type="line"/>
      <point x="242" y="-10" type="line"/>
      <point x="499" y="568" type="line"/>
      <point x="466" y="574" type="line"/>
      <point x="269" y="125" type="line"/>
      <point x="293" y="123" type="line"/>
      <point x="192" y="547" type="line" smooth="yes"/>
      <point x="189" y="559"/>
      <point x="188" y="569"/>
      <point x="200" y="569" type="curve" smooth="yes"/>
      <point x="256" y="567" type="line"/>
      <point x="260" y="597" type="line"/>
    </contour>
    <contour>
      <point x="507" y="598" type="move" name="top"/>
    </contour>
  </outline>
</glyph>
<glyph name="X" format="1">
  <advance width="549"/>
  <unicode hex="0058"/>
  <outline>
    <contour>
      <point x="429" y="597" type="line"/>
      <point x="425" y="567" type="line"/>
      <point x="468" y="569" type="line" smooth="yes"/>
      <point x="477" y="569"/>
      <point x="481" y="561"/>
      <point x="471" y="549" type="curve" smooth="yes"/>
      <point x="325" y="354" type="line"/>
      <point x="265" y="305" type="line"/>
      <point x="74" y="50" type="line" smooth="yes"/>
      <point x="63" y="35"/>
      <point x="52" y="28"/>
      <point x="40" y="28" type="curve" smooth="yes"/>
      <point x="3" y="30" type="line"/>
      <point x="-1" y="0" type="line"/>
      <point x="156" y="0" type="line"/>
      <point x="160" y="30" type="line"/>
      <point x="114" y="27" type="line" smooth="yes"/>
      <point x="105" y="27"/>
      <point x="106" y="38"/>
      <point x="113" y="47" type="curve" smooth="yes"/>
      <point x="279" y="270" type="line"/>
      <point x="340" y="319" type="line"/>
      <point x="511" y="549" type="line" smooth="yes"/>
      <point x="521" y="562"/>
      <point x="533" y="570"/>
      <point x="543" y="569" type="curve" smooth="yes"/>
      <point x="574" y="567" type="line"/>
      <point x="578" y="597" type="line"/>
    </contour>
    <contour>
      <point x="268" y="271" type="line"/>
      <point x="362" y="51" type="line" smooth="yes"/>
      <point x="367" y="39"/>
      <point x="367" y="27"/>
      <point x="354" y="27" type="curve" smooth="yes"/>
      <point x="305" y="30" type="line"/>
      <point x="301" y="0" type="line"/>
      <point x="531" y="0" type="line"/>
      <point x="535" y="30" type="line"/>
      <point x="496" y="27" type="line" smooth="yes"/>
      <point x="483" y="26"/>
      <point x="474" y="36"/>
      <point x="470" y="44" type="curve" smooth="yes"/>
      <point x="343" y="338" type="line"/>
    </contour>
    <contour>
      <point x="92" y="597" type="line"/>
      <point x="88" y="567" type="line"/>
      <point x="121" y="569" type="line" smooth="yes"/>
      <point x="131" y="569"/>
      <point x="141" y="565"/>
      <point x="147" y="550" type="curve" smooth="yes"/>
      <point x="262" y="286" type="line"/>
      <point x="336" y="353" type="line"/>
      <point x="254" y="548" type="line"/>
      <point x="250" y="556"/>
      <point x="252" y="569"/>
      <point x="269" y="569" type="curve" smooth="yes"/>
      <point x="311" y="567" type="line"/>
      <point x="315" y="597" type="line"/>
    </contour>
  </outline>
</glyph>
<glyph name="Y" format="1">
  <advance width="491"/>
  <unicode hex="0059"/>
  <outline>
    <contour>
      <point x="49" y="597" type="line"/>
      <point x="45" y="567" type="line"/>
      <point x="73" y="569" type="line"/>
      <point x="82" y="569"/>
      <point x="86" y="563"/>
      <point x="92" y="550" type="curve" smooth="yes"/>
      <point x="219" y="263" type="line"/>
      <point x="189" y="49" type="line" smooth="yes"/>
      <point x="187" y="34"/>
      <point x="180" y="27"/>
      <point x="169" y="27" type="curve" smooth="yes"/>
      <point x="120" y="29" type="line"/>
      <point x="116" y="0" type="line"/>
      <point x="340" y="0" type="line"/>
      <point x="344" y="29" type="line"/>
      <point x="296" y="27" type="line"/>
      <point x="283" y="27"/>
      <point x="279" y="36"/>
      <point x="281" y="48" type="curve" smooth="yes"/>
      <point x="318" y="312" type="line"/>
      <point x="302" y="311" type="line"/>
      <point x="200" y="545" type="line" smooth="yes"/>
      <point x="197" y="553"/>
      <point x="194" y="569"/>
      <point x="208" y="569" type="curve" smooth="yes"/>
      <point x="261" y="567" type="line"/>
      <point x="265" y="597" type="line"/>
    </contour>
    <contour>
      <point x="406" y="597" type="line"/>
      <point x="402" y="567" type="line"/>
      <point x="453" y="569" type="line" smooth="yes"/>
      <point x="463" y="569"/>
      <point x="461" y="556"/>
      <point x="456" y="549" type="curve" smooth="yes"/>
      <point x="294" y="312" type="line"/>
      <point x="310" y="281" type="line"/>
      <point x="492" y="548" type="line" smooth="yes"/>
      <point x="501" y="561"/>
      <point x="512" y="569"/>
      <point x="521" y="569" type="curve" smooth="yes"/>
      <point x="551" y="567" type="line"/>
      <point x="555" y="597" type="line"/>
    </contour>
    <contour>
      <point x="309" y="598" type="move" name="top"/>
    </contour>
  </outline>
</glyph>
<glyph name="Z" format="1">
  <advance width="497"/>
  <unicode hex="005A"/>
  <outline>
    <contour>
      <point x="66" y="444" type="line"/>
      <point x="95" y="444" type="line"/>
      <point x="107" y="531"/>
      <point x="157" y="570"/>
      <point x="248" y="570" type="curve" smooth="yes"/>
      <point x="411" y="570" type="line"/>
      <point x="402" y="585" type="line"/>
      <point x="7" y="28" type="line"/>
      <point x="3" y="1" type="line"/>
      <point x="330" y="1" type="line" smooth="yes"/>
      <point x="394" y="1"/>
      <point x="430" y="0"/>
      <point x="439" y="-4" type="curve"/>
      <point x="471" y="168" type="line"/>
      <point x="442" y="168" type="line"/>
      <point x="430" y="80"/>
      <point x="367" y="28"/>
      <point x="280" y="28" type="curve" smooth="yes"/>
      <point x="90" y="28" type="line"/>
      <point x="101" y="11" type="line"/>
      <point x="502" y="574" type="line"/>
      <point x="505" y="598" type="line"/>
      <point x="195" y="598" type="line" smooth="yes"/>
      <point x="172" y="598"/>
      <point x="107" y="601"/>
      <point x="88" y="601" type="curve"/>
    </contour>
    <contour>
      <point x="306" y="598" type="move" name="top"/>
    </contour>
  </outline>
</glyph>
<glyph name="grave" format="1">
  <advance width="266"/>
  <unicode hex="0060"/>
  <outline>
    <contour>
      <point x="127" y="653"/>
      <point x="92" y="635"/>
      <point x="92" y="626" type="curve" smooth="yes"/>
      <point x="92" y="621"/>
      <point x="95" y="618"/>
      <point x="98" y="615" type="curve" smooth="yes"/>
      <point x="237" y="502" type="line" smooth="yes"/>
      <point x="240" y="499"/>
      <point x="247" y="493"/>
      <point x="255" y="493" type="curve" smooth="yes"/>
      <point x="267" y="493"/>
      <point x="272" y="496"/>
      <point x="272" y="501" type="curve" smooth="yes"/>
      <point x="272" y="504"/>
      <point x="268" y="510"/>
      <point x="263" y="518" type="curve" smooth="yes"/>
      <point x="181" y="632" type="line" smooth="yes"/>
      <point x="169" y="648"/>
      <point x="167" y="653"/>
      <point x="152" y="653" type="curve" smooth="yes"/>
    </contour>
    <contour>
      <point x="198" y="420" type="move" name="_top"/>
    </contour>
  </outline>
</glyph>
<glyph name="d" format="1">
  <advance width="476"/>
  <unicode hex="0064"/>
  <outline>
    <contour>
      <point x="123" y="430"/>
      <point x="23" y="260"/>
      <point x="23" y="120" type="curve" smooth="yes"/>
      <point x="23" y="42"/>
      <point x="62" y="-10"/>
      <point x="123" y="-10" type="curve" smooth="yes"/>
      <point x="185" y="-10"/>
      <point x="260" y="48"/>
      <point x="324" y="204" type="curve"/>
      <point x="351" y="384" type="line"/>
      <point x="336" y="408"/>
      <point x="301" y="430"/>
      <point x="253" y="430" type="curve" smooth="yes"/>
    </contour>
    <contour>
      <point x="283" y="400"/>
      <point x="334" y="390"/>
      <point x="334" y="326" type="curve" smooth="yes"/>
      <point x="334" y="228"/>
      <point x="216" y="45"/>
      <point x="159" y="45" type="curve" smooth="yes"/>
      <point x="133" y="45"/>
      <point x="111" y="80"/>
      <point x="111" y="144" type="curve" smooth="yes"/>
      <point x="111" y="173"/>
      <point x="115" y="209"/>
      <point x="124" y="245" type="curve" smooth="yes"/>
      <point x="143" y="323"/>
      <point x="186" y="400"/>
      <point x="257" y="400" type="curve" smooth="yes"/>
    </contour>
    <contour>
      <point x="398" y="730"/>
      <point x="359" y="724"/>
      <point x="313" y="698" type="curve"/>
      <point x="319" y="673" type="line"/>
      <point x="328" y="675"/>
      <point x="336" y="675"/>
      <point x="343" y="675" type="curve" smooth="yes"/>
      <point x="365" y="675"/>
      <point x="378" y="667"/>
      <point x="378" y="651" type="curve" smooth="yes"/>
      <point x="378" y="643"/>
      <point x="358" y="452"/>
      <point x="344" y="382" type="curve"/>
      <point x="319" y="201" type="line"/>
      <point x="306" y="132"/>
      <point x="301" y="70"/>
      <point x="301" y="39" type="curve" smooth="yes"/>
      <point x="301" y="11"/>
      <point x="307" y="-10"/>
      <point x="331" y="-10" type="curve" smooth="yes"/>
      <point x="357" y="-10"/>
      <point x="404" y="7"/>
      <point x="453" y="60" type="curve"/>
      <point x="441" y="80" type="line"/>
      <point x="424" y="69"/>
      <point x="409" y="67"/>
      <point x="404" y="67" type="curve" smooth="yes"/>
      <point x="388" y="67"/>
      <point x="387" y="83"/>
      <point x="387" y="94" type="curve" smooth="yes"/>
      <point x="387" y="208"/>
      <point x="443" y="531"/>
      <point x="463" y="651" type="curve" smooth="yes"/>
      <point x="467" y="675"/>
      <point x="470" y="699"/>
      <point x="470" y="708" type="curve" smooth="yes"/>
      <point x="470" y="727"/>
      <point x="456" y="730"/>
      <point x="432" y="730" type="curve" smooth="yes"/>
    </contour>
    <contour>
      <point x="232" y="213" type="move" name="center"/>
    </contour>
    <contour>
      <point x="525" y="598" type="move" name="topright"/>
    </contour>
  </outline>
</glyph>
<glyph name="e" format="1">
  <advance width="399"/>
  <unicode hex="0065"/>
  <outline>
    <contour>
      <point x="138" y="430"/>
      <point x="26" y="282"/>
      <point x="26" y="147" type="curve" smooth="yes"/>
      <point x="26" y="53"/>
      <point x="86" y="-9"/>
      <point x="167" y="-9" type="curve" smooth="yes"/>
      <point x="232" y="-9"/>
      <point x="297" y="33"/>
      <point x="346" y="84" type="curve"/>
      <point x="324" y="100" type="line"/>
      <point x="272" y="67"/>
      <point x="227" y="45"/>
      <point x="192" y="45" type="curve" smooth="yes"/>
      <point x="148" y="45"/>
      <point x="115" y="86"/>
      <point x="115" y="154" type="curve" smooth="yes"/>
      <point x="115" y="210"/>
      <point x="128" y="271"/>
      <point x="153" y="319" type="curve" smooth="yes"/>
      <point x="178" y="366"/>
      <point x="214" y="400"/>
      <point x="262" y="400" type="curve" smooth="yes"/>
      <point x="302" y="400"/>
      <point x="319" y="369"/>
      <point x="319" y="338" type="curve" smooth="yes"/>
      <point x="319" y="274"/>
      <point x="248" y="221"/>
      <point x="110" y="212" type="curve"/>
      <point x="110" y="181" type="line"/>
      <point x="315" y="194"/>
      <point x="390" y="265"/>
      <point x="390" y="332" type="curve" smooth="yes"/>
      <point x="390" y="385"/>
      <point x="338" y="430"/>
      <point x="264" y="430" type="curve" smooth="yes"/>
    </contour>
    <contour>
      <point x="254" y="14" type="move" name="ogonek"/>
    </contour>
    <contour>
      <point x="149" y="0" type="move" name="bottom"/>
    </contour>
    <contour>
      <point x="239" y="420" type="move" name="top"/>
    </contour>
  </outline>
</glyph>
<glyph name="g" format="1">
  <advance width="428"/>
  <unicode hex="0067"/>
  <outline>
    <contour>
      <point x="81" y="143" type="line" smooth="yes"/>
      <point x="51" y="123"/>
      <point x="25" y="102"/>
      <point x="25" y="71" type="curve" smooth="yes"/>
      <point x="25" y="14"/>
      <point x="106" y="-5"/>
      <point x="181" y="-27" type="curve" smooth="yes"/>
      <point x="247" y="-47"/>
      <point x="308" y="-70"/>
      <point x="308" y="-125" type="curve" smooth="yes"/>
      <point x="308" y="-183"/>
      <point x="226" y="-219"/>
      <point x="129" y="-219" type="curve" smooth="yes"/>
      <point x="44" y="-219"/>
      <point x="16" y="-184"/>
      <point x="16" y="-138" type="curve" smooth="yes"/>
      <point x="16" y="-71"/>
      <point x="78" y="-23"/>
      <point x="126" y="-7" type="curve"/>
      <point x="102" y="10" type="line"/>
      <point x="29" y="-23"/>
      <point x="-36" y="-74"/>
      <point x="-36" y="-140" type="curve" smooth="yes"/>
      <point x="-36" y="-207"/>
      <point x="14" y="-245"/>
      <point x="126" y="-245" type="curve" smooth="yes"/>
      <point x="260" y="-245"/>
      <point x="377" y="-199"/>
      <point x="377" y="-102" type="curve" smooth="yes"/>
      <point x="377" y="-13"/>
      <point x="296" y="11"/>
      <point x="221" y="37" type="curve" smooth="yes"/>
      <point x="154" y="60"/>
      <point x="91" y="68"/>
      <point x="91" y="101" type="curve" smooth="yes"/>
      <point x="91" y="117"/>
      <point x="109" y="137"/>
      <point x="123" y="149" type="curve"/>
      <point x="110" y="162" type="line"/>
    </contour>
    <contour>
      <point x="134" y="430"/>
      <point x="41" y="343"/>
      <point x="41" y="241" type="curve" smooth="yes"/>
      <point x="41" y="180"/>
      <point x="75" y="130"/>
      <point x="165" y="130" type="curve" smooth="yes"/>
      <point x="284" y="130"/>
      <point x="379" y="218"/>
      <point x="379" y="319" type="curve" smooth="yes"/>
      <point x="379" y="377"/>
      <point x="347" y="430"/>
      <point x="253" y="430" type="curve" smooth="yes"/>
    </contour>
    <contour>
      <point x="275" y="403"/>
      <point x="293" y="376"/>
      <point x="293" y="334" type="curve" smooth="yes"/>
      <point x="293" y="303"/>
      <point x="288" y="259"/>
      <point x="277" y="230" type="curve" smooth="yes"/>
      <point x="258" y="180"/>
      <point x="230" y="157"/>
      <point x="187" y="157" type="curve" smooth="yes"/>
      <point x="145" y="157"/>
      <point x="127" y="184"/>
      <point x="127" y="226" type="curve" smooth="yes"/>
      <point x="127" y="257"/>
      <point x="132" y="301"/>
      <point x="143" y="330" type="curve" smooth="yes"/>
      <point x="162" y="380"/>
      <point x="190" y="403"/>
      <point x="233" y="403" type="curve" smooth="yes"/>
    </contour>
    <contour>
      <point x="402" y="505"/>
      <point x="338" y="460"/>
      <point x="299" y="413" type="curve"/>
      <point x="320" y="404" type="line"/>
      <point x="340" y="431"/>
      <point x="381" y="447"/>
      <point x="392" y="447" type="curve" smooth="yes"/>
      <point x="408" y="447"/>
      <point x="401" y="424"/>
      <point x="432" y="424" type="curve" smooth="yes"/>
      <point x="454" y="424"/>
      <point x="471" y="448"/>
      <point x="471" y="467" type="curve" smooth="yes"/>
      <point x="471" y="484"/>
      <point x="462" y="505"/>
      <point x="430" y="505" type="curve" smooth="yes"/>
    </contour>
    <contour>
      <point x="230" y="420" type="move" name="top"/>
    </contour>
  </outline>
</glyph>
<glyph name="h" format="1">
  <advance width="499"/>
  <unicode hex="0068"/>
  <outline>
    <contour>
      <point x="164" y="730"/>
      <point x="118" y="722"/>
      <point x="70" y="698" type="curve"/>
      <point x="76" y="673" type="line"/>
      <point x="85" y="675"/>
      <point x="93" y="675"/>
      <point x="100" y="675" type="curve" smooth="yes"/>
      <point x="120" y="675"/>
      <point x="133" y="667"/>
      <point x="133" y="651" type="curve" smooth="yes"/>
      <point x="133" y="580"/>
      <point x="59" y="87"/>
      <point x="45" y="0" type="curve"/>
      <point x="124" y="0" type="line"/>
      <point x="139" y="123" type="line"/>
      <point x="151" y="213" type="line"/>
      <point x="187" y="464" type="line" smooth="yes"/>
      <point x="195" y="518"/>
      <point x="208" y="589"/>
      <point x="216" y="640" type="curve" smooth="yes"/>
      <point x="222" y="674"/>
      <point x="226" y="700"/>
      <point x="226" y="708" type="curve" smooth="yes"/>
      <point x="226" y="727"/>
      <point x="212" y="730"/>
      <point x="188" y="730" type="curve" smooth="yes"/>
    </contour>
    <contour>
      <point x="260" y="430"/>
      <point x="189" y="311"/>
      <point x="149" y="214" type="curve"/>
      <point x="135" y="101" type="line"/>
      <point x="161" y="219"/>
      <point x="256" y="375"/>
      <point x="321" y="375" type="curve" smooth="yes"/>
      <point x="348" y="375"/>
      <point x="364" y="355"/>
      <point x="364" y="324" type="curve" smooth="yes"/>
      <point x="364" y="256"/>
      <point x="316" y="90"/>
      <point x="316" y="35" type="curve" smooth="yes"/>
      <point x="316" y="7"/>
      <point x="330" y="-10"/>
      <point x="348" y="-10" type="curve" smooth="yes"/>
      <point x="377" y="-10"/>
      <point x="424" y="16"/>
      <point x="466" y="60" type="curve"/>
      <point x="454" y="80" type="line"/>
      <point x="437" y="69"/>
      <point x="423" y="67"/>
      <point x="417" y="67" type="curve" smooth="yes"/>
      <point x="400" y="67"/>
      <point x="398" y="83"/>
      <point x="398" y="90" type="curve" smooth="yes"/>
      <point x="398" y="126"/>
      <point x="446" y="276"/>
      <point x="446" y="340" type="curve" smooth="yes"/>
      <point x="446" y="393"/>
      <point x="412" y="430"/>
      <point x="357" y="430" type="curve" smooth="yes"/>
    </contour>
    <contour>
      <point x="262" y="213" type="move" name="center"/>
    </contour>
    <contour>
      <point x="172" y="650" type="move" name="top"/>
    </contour>
  </outline>
</glyph>
<glyph name="i" format="1">
  <advance width="260"/>
  <unicode hex="0069"/>
  <outline>
    <contour>
      <point x="144" y="643"/>
      <point x="116" y="622"/>
      <point x="116" y="589" type="curve" smooth="yes"/>
      <point x="116" y="563"/>
      <point x="136" y="548"/>
      <point x="164" y="548" type="curve" smooth="yes"/>
      <point x="200" y="548"/>
      <point x="225" y="568"/>
      <point x="225" y="602" type="curve" smooth="yes"/>
      <point x="225" y="627"/>
      <point x="207" y="643"/>
      <point x="178" y="643" type="curve" smooth="yes"/>
    </contour>
    <component base="dotlessi"/>
    <contour>
      <point x="149" y="14" type="move" name="ogonek"/>
    </contour>
  </outline>
</glyph>
<glyph name="j" format="1">
  <advance width="242"/>
  <unicode hex="006A"/>
  <outline>
    <contour>
      <point x="145" y="643"/>
      <point x="117" y="622"/>
      <point x="117" y="589" type="curve" smooth="yes"/>
      <point x="117" y="563"/>
      <point x="137" y="548"/>
      <point x="165" y="548" type="curve" smooth="yes"/>
      <point x="201" y="548"/>
      <point x="226" y="568"/>
      <point x="226" y="602" type="curve" smooth="yes"/>
      <point x="226" y="627"/>
      <point x="208" y="643"/>
      <point x="179" y="643" type="curve" smooth="yes"/>
    </contour>
    <component base="dotlessj"/>
  </outline>
</glyph>
<glyph name="l" format="1">
  <advance width="236"/>
  <unicode hex="006C"/>
  <outline>
    <contour>
      <point x="123" y="609"/>
      <point x="107" y="491"/>
      <point x="89" y="370" type="curve" smooth="yes"/>
      <point x="67" y="219"/>
      <point x="43" y="63"/>
      <point x="43" y="36" type="curve" smooth="yes"/>
      <point x="43" y="5"/>
      <point x="59" y="-10"/>
      <point x="82" y="-10" type="curve" smooth="yes"/>
      <point x="114" y="-10"/>
      <point x="160" y="16"/>
      <point x="202" y="60" type="curve"/>
      <point x="190" y="80" type="line"/>
      <point x="173" y="69"/>
      <point x="154" y="67"/>
      <point x="149" y="67" type="curve" smooth="yes"/>
      <point x="131" y="67"/>
      <point x="130" y="83"/>
      <point x="130" y="94" type="curve" smooth="yes"/>
      <point x="133" y="174"/>
      <point x="164" y="385"/>
      <point x="189" y="539" type="curve" smooth="yes"/>
      <point x="203" y="625"/>
      <point x="216" y="691"/>
      <point x="216" y="708" type="curve" smooth="yes"/>
      <point x="216" y="727"/>
      <point x="202" y="730"/>
      <point x="183" y="730" type="curve" smooth="yes"/>
      <point x="149" y="730"/>
      <point x="106" y="720"/>
      <point x="60" y="698" type="curve"/>
      <point x="66" y="673" type="line"/>
      <point x="75" y="675"/>
      <point x="83" y="675"/>
      <point x="90" y="675" type="curve" smooth="yes"/>
      <point x="110" y="675"/>
      <point x="123" y="667"/>
      <point x="123" y="651" type="curve" smooth="yes"/>
    </contour>
    <contour>
      <point x="179" y="650" type="move" name="top"/>
    </contour>
    <contour>
      <point x="90" y="0" type="move" name="bottom"/>
    </contour>
    <contour>
      <point x="272" y="598" type="move" name="topright"/>
    </contour>
  </outline>
</glyph>
<glyph name="q" format="1">
  <advance width="452"/>
  <unicode hex="0071"/>
  <outline>
    <contour>
      <point x="347" y="411" type="line"/>
      <point x="341" y="390" type="line"/>
      <point x="324" y="414"/>
      <point x="295" y="430"/>
      <point x="253" y="430" type="curve" smooth="yes"/>
      <point x="123" y="430"/>
      <point x="23" y="260"/>
      <point x="23" y="120" type="curve" smooth="yes"/>
      <point x="23" y="42"/>
      <point x="62" y="-10"/>
      <point x="123" y="-10" type="curve" smooth="yes"/>
      <point x="183" y="-10"/>
      <point x="253" y="43"/>
      <point x="315" y="183" type="curve"/>
      <point x="293" y="57"/>
      <point x="279" y="-69"/>
      <point x="262" y="-195" type="curve" smooth="yes"/>
      <point x="260" y="-208"/>
      <point x="256" y="-214"/>
      <point x="248" y="-215" type="curve"/>
      <point x="217" y="-213" type="line"/>
      <point x="213" y="-239" type="line"/>
      <point x="411" y="-239" type="line"/>
      <point x="415" y="-213" type="line"/>
      <point x="352" y="-215" type="line" smooth="yes"/>
      <point x="346" y="-215"/>
      <point x="343" y="-211"/>
      <point x="343" y="-202" type="curve" smooth="yes"/>
      <point x="343" y="-167"/>
      <point x="386" y="222"/>
      <point x="439" y="428" type="curve"/>
    </contour>
    <contour>
      <point x="134" y="45"/>
      <point x="112" y="80"/>
      <point x="112" y="144" type="curve" smooth="yes"/>
      <point x="112" y="170"/>
      <point x="116" y="205"/>
      <point x="124" y="242" type="curve" smooth="yes"/>
      <point x="142" y="319"/>
      <point x="183" y="400"/>
      <point x="257" y="400" type="curve" smooth="yes"/>
      <point x="283" y="400"/>
      <point x="334" y="390"/>
      <point x="334" y="326" type="curve" smooth="yes"/>
      <point x="334" y="228"/>
      <point x="216" y="45"/>
      <point x="159" y="45" type="curve" smooth="yes"/>
    </contour>
  </outline>
</glyph>
<glyph name="r" format="1">
  <advance width="368"/>
  <unicode hex="0072"/>
  <outline>
    <contour>
      <point x="229" y="430"/>
      <point x="176" y="297"/>
      <point x="144" y="200" type="curve"/>
      <point x="138" y="82" type="line"/>
      <point x="159" y="207"/>
      <point x="232" y="380"/>
      <point x="283" y="380" type="curve" smooth="yes"/>
      <point x="294" y="380"/>
      <point x="301" y="372"/>
      <point x="301" y="363" type="curve" smooth="yes"/>
      <point x="301" y="352"/>
      <point x="289" y="343"/>
      <point x="289" y="326" type="curve" smooth="yes"/>
      <point x="289" y="308"/>
      <point x="302" y="298"/>
      <point x="323" y="298" type="curve" smooth="yes"/>
      <point x="360" y="298"/>
      <point x="375" y="331"/>
      <point x="375" y="358" type="curve" smooth="yes"/>
      <point x="375" y="394"/>
      <point x="349" y="430"/>
      <point x="307" y="430" type="curve" smooth="yes"/>
    </contour>
    <contour>
      <point x="114" y="426"/>
      <point x="79" y="413"/>
      <point x="48" y="400" type="curve"/>
      <point x="53" y="371" type="line"/>
      <point x="57" y="372"/>
      <point x="64" y="373"/>
      <point x="69" y="373" type="curve" smooth="yes"/>
      <point x="89" y="373"/>
      <point x="98" y="361"/>
      <point x="98" y="341" type="curve" smooth="yes"/>
      <point x="98" y="278"/>
      <point x="68" y="103"/>
      <point x="51" y="0" type="curve"/>
      <point x="129" y="0" type="line"/>
      <point x="144" y="125" type="line"/>
      <point x="156" y="211" type="line"/>
      <point x="167" y="281"/>
      <point x="188" y="388"/>
      <point x="188" y="407" type="curve" smooth="yes"/>
      <point x="188" y="423"/>
      <point x="169" y="426"/>
      <point x="151" y="426" type="curve" smooth="yes"/>
    </contour>
    <contour>
      <point x="167" y="420" type="move" name="top"/>
    </contour>
    <contour>
      <point x="98" y="0" type="move" name="bottom"/>
    </contour>
  </outline>
</glyph>
<glyph name="t" format="1">
  <advance width="322"/>
  <unicode hex="0074"/>
  <outline>
    <contour>
      <point x="264" y="100" type="line"/>
      <point x="240" y="76"/>
      <point x="209" y="51"/>
      <point x="184" y="51" type="curve" smooth="yes"/>
      <point x="164" y="51"/>
      <point x="156" y="68"/>
      <point x="156" y="91" type="curve" smooth="yes"/>
      <point x="156" y="119"/>
      <point x="168" y="201"/>
      <point x="177" y="254" type="curve" smooth="yes"/>
      <point x="191" y="338"/>
      <point x="227" y="523"/>
      <point x="230" y="540" type="curve"/>
      <point x="140" y="524" type="line"/>
      <point x="92" y="226" type="line" smooth="yes"/>
      <point x="79" y="143"/>
      <point x="69" y="86"/>
      <point x="69" y="57" type="curve" smooth="yes"/>
      <point x="69" y="21"/>
      <point x="87" y="-9"/>
      <point x="140" y="-9" type="curve" smooth="yes"/>
      <point x="201" y="-9"/>
      <point x="246" y="31"/>
      <point x="286" y="84" type="curve"/>
    </contour>
    <contour>
      <point x="152" y="420" type="line"/>
      <point x="70" y="420" type="line"/>
      <point x="43" y="389" type="line"/>
      <point x="145" y="389" type="line"/>
    </contour>
    <contour>
      <point x="201" y="389" type="line"/>
      <point x="285" y="389" type="line"/>
      <point x="314" y="405" type="line"/>
      <point x="314" y="420" type="line"/>
      <point x="207" y="420" type="line"/>
    </contour>
    <contour>
      <point x="161" y="213" type="move" name="center"/>
    </contour>
    <contour>
      <point x="141" y="0" type="move" name="bottom"/>
    </contour>
    <contour>
      <point x="309" y="598" type="move" name="topright"/>
    </contour>
  </outline>
</glyph>
<glyph name="u" format="1">
  <advance width="489"/>
  <unicode hex="0075"/>
  <outline>
    <contour>
      <point x="334" y="201" type="line"/>
      <point x="324" y="131"/>
      <point x="314" y="67"/>
      <point x="314" y="36" type="curve" smooth="yes"/>
      <point x="314" y="5"/>
      <point x="319" y="-10"/>
      <point x="338" y="-10" type="curve" smooth="yes"/>
      <point x="368" y="-10"/>
      <point x="414" y="7"/>
      <point x="463" y="60" type="curve"/>
      <point x="451" y="80" type="line"/>
      <point x="434" y="69"/>
      <point x="421" y="67"/>
      <point x="413" y="67" type="curve" smooth="yes"/>
      <point x="404" y="67"/>
      <point x="400" y="73"/>
      <point x="400" y="84" type="curve" smooth="yes"/>
      <point x="400" y="126"/>
      <point x="418" y="224"/>
      <point x="458" y="428" type="curve"/>
      <point x="366" y="411" type="line"/>
    </contour>
    <contour>
      <point x="355" y="324" type="line"/>
      <point x="339" y="221"/>
      <point x="234" y="45"/>
      <point x="170" y="45" type="curve" smooth="yes"/>
      <point x="145" y="45"/>
      <point x="136" y="69"/>
      <point x="136" y="99" type="curve" smooth="yes"/>
      <point x="136" y="157"/>
      <point x="189" y="377"/>
      <point x="189" y="407" type="curve" smooth="yes"/>
      <point x="189" y="422"/>
      <point x="173" y="426"/>
      <point x="157" y="426" type="curve" smooth="yes"/>
      <point x="118" y="426"/>
      <point x="81" y="413"/>
      <point x="42" y="400" type="curve"/>
      <point x="47" y="371" type="line"/>
      <point x="51" y="372"/>
      <point x="59" y="373"/>
      <point x="67" y="373" type="curve" smooth="yes"/>
      <point x="88" y="373"/>
      <point x="105" y="368"/>
      <point x="104" y="344" type="curve" smooth="yes"/>
      <point x="103" y="304"/>
      <point x="54" y="131"/>
      <point x="54" y="70" type="curve" smooth="yes"/>
      <point x="54" y="26"/>
      <point x="80" y="-10"/>
      <point x="136" y="-10" type="curve" smooth="yes"/>
      <point x="202" y="-10"/>
      <point x="262" y="45"/>
      <point x="344" y="204" type="curve"/>
      <point x="369" y="350" type="line"/>
    </contour>
    <contour>
      <point x="409" y="14" type="move" name="ogonek"/>
    </contour>
    <contour>
      <point x="278" y="420" type="move" name="top"/>
    </contour>
  </outline>
</glyph>
<glyph name="v" format="1">
  <advance width="411"/>
  <unicode hex="0076"/>
  <outline>
    <contour>
      <point x="304" y="429"/>
      <point x="287" y="412"/>
      <point x="287" y="381" type="curve" smooth="yes"/>
      <point x="287" y="357"/>
      <point x="298" y="340"/>
      <point x="315" y="339" type="curve" smooth="yes"/>
      <point x="339" y="338"/>
      <point x="348" y="335"/>
      <point x="348" y="315" type="curve" smooth="yes"/>
      <point x="348" y="242"/>
      <point x="239" y="88"/>
      <point x="163" y="25" type="curve"/>
      <point x="185" y="-5" type="line"/>
      <point x="264" y="66"/>
      <point x="404" y="273"/>
      <point x="404" y="368" type="curve" smooth="yes"/>
      <point x="404" y="407"/>
      <point x="381" y="429"/>
      <point x="340" y="429" type="curve" smooth="yes"/>
    </contour>
    <contour>
      <point x="158" y="35" type="line"/>
      <point x="158" y="-5" type="line"/>
      <point x="185" y="-5" type="line"/>
      <point x="185" y="35" type="line"/>
    </contour>
    <contour>
      <point x="74" y="341" type="line"/>
      <point x="158" y="-5" type="line"/>
      <point x="222" y="55" type="line"/>
      <point x="153" y="368" type="line"/>
    </contour>
    <contour>
      <point x="80" y="426"/>
      <point x="39" y="413"/>
      <point x="11" y="400" type="curve"/>
      <point x="16" y="371" type="line"/>
      <point x="26" y="373"/>
      <point x="34" y="374"/>
      <point x="41" y="374" type="curve" smooth="yes"/>
      <point x="59" y="374"/>
      <point x="68" y="366"/>
      <point x="74" y="341" type="curve"/>
      <point x="153" y="368" type="line"/>
      <point x="144" y="415"/>
      <point x="127" y="426"/>
      <point x="104" y="426" type="curve" smooth="yes"/>
    </contour>
  </outline>
</glyph>
<glyph name="w" format="1">
  <advance width="662"/>
  <unicode hex="0077"/>
  <outline>
    <contour>
      <point x="555" y="429"/>
      <point x="538" y="412"/>
      <point x="538" y="381" type="curve" smooth="yes"/>
      <point x="538" y="357"/>
      <point x="549" y="340"/>
      <point x="566" y="339" type="curve" smooth="yes"/>
      <point x="590" y="338"/>
      <point x="599" y="335"/>
      <point x="599" y="315" type="curve" smooth="yes"/>
      <point x="599" y="247"/>
      <point x="490" y="88"/>
      <point x="414" y="25" type="curve"/>
      <point x="436" y="-5" type="line"/>
      <point x="515" y="66"/>
      <point x="655" y="273"/>
      <point x="655" y="368" type="curve" smooth="yes"/>
      <point x="655" y="407"/>
      <point x="632" y="429"/>
      <point x="591" y="429" type="curve" smooth="yes"/>
    </contour>
    <contour>
      <point x="158" y="35" type="line"/>
      <point x="158" y="-5" type="line"/>
      <point x="185" y="-5" type="line"/>
      <point x="185" y="35" type="line"/>
    </contour>
    <contour>
      <point x="74" y="341" type="line"/>
      <point x="158" y="-5" type="line"/>
      <point x="222" y="55" type="line"/>
      <point x="153" y="368" type="line"/>
    </contour>
    <contour>
      <point x="409" y="35" type="line"/>
      <point x="409" y="-5" type="line"/>
      <point x="436" y="-5" type="line"/>
      <point x="436" y="35" type="line"/>
    </contour>
    <contour>
      <point x="348" y="315" type="line"/>
      <point x="348" y="247"/>
      <point x="239" y="88"/>
      <point x="163" y="25" type="curve"/>
      <point x="185" y="-5" type="line"/>
      <point x="264" y="66"/>
      <point x="404" y="273"/>
      <point x="404" y="368" type="curve"/>
    </contour>
    <contour>
      <point x="80" y="426"/>
      <point x="39" y="413"/>
      <point x="11" y="400" type="curve"/>
      <point x="16" y="371" type="line"/>
      <point x="26" y="373"/>
      <point x="34" y="374"/>
      <point x="41" y="374" type="curve" smooth="yes"/>
      <point x="59" y="374"/>
      <point x="68" y="366"/>
      <point x="74" y="341" type="curve"/>
      <point x="153" y="368" type="line"/>
      <point x="144" y="415"/>
      <point x="127" y="426"/>
      <point x="104" y="426" type="curve" smooth="yes"/>
    </contour>
    <contour>
      <point x="301" y="420" type="line"/>
      <point x="309" y="398"/>
      <point x="318" y="376"/>
      <point x="324" y="353" type="curve" smooth="yes"/>
      <point x="344" y="280" type="line"/>
      <point x="409" y="-5" type="line"/>
      <point x="473" y="55" type="line"/>
      <point x="393" y="420" type="line"/>
    </contour>
    <contour>
      <point x="364" y="420" type="move" name="top"/>
    </contour>
  </outline>
</glyph>
<glyph name="y" format="1">
  <advance width="411"/>
  <unicode hex="0079"/>
  <outline>
    <contour>
      <point x="304" y="429"/>
      <point x="287" y="412"/>
      <point x="287" y="381" type="curve" smooth="yes"/>
      <point x="287" y="357"/>
      <point x="298" y="340"/>
      <point x="315" y="339" type="curve" smooth="yes"/>
      <point x="344" y="337"/>
      <point x="351" y="336"/>
      <point x="351" y="315" type="curve" smooth="yes"/>
      <point x="351" y="255"/>
      <point x="291" y="140"/>
      <point x="225" y="45" type="curve" smooth="yes"/>
      <point x="120" y="-106"/>
      <point x="29" y="-169"/>
      <point x="8" y="-169" type="curve" smooth="yes"/>
      <point x="-19" y="-169"/>
      <point x="-38" y="-145"/>
      <point x="-63" y="-145" type="curve" smooth="yes"/>
      <point x="-90" y="-145"/>
      <point x="-108" y="-171"/>
      <point x="-108" y="-195" type="curve" smooth="yes"/>
      <point x="-108" y="-236"/>
      <point x="-80" y="-239"/>
      <point x="-58" y="-239" type="curve" smooth="yes"/>
      <point x="-25" y="-239"/>
      <point x="113" y="-195"/>
      <point x="263" y="39" type="curve" smooth="yes"/>
      <point x="339" y="157"/>
      <point x="404" y="303"/>
      <point x="404" y="368" type="curve" smooth="yes"/>
      <point x="404" y="407"/>
      <point x="381" y="429"/>
      <point x="340" y="429" type="curve" smooth="yes"/>
    </contour>
    <contour>
      <point x="80" y="426"/>
      <point x="39" y="413"/>
      <point x="11" y="400" type="curve"/>
      <point x="16" y="371" type="line"/>
      <point x="26" y="373"/>
      <point x="34" y="374"/>
      <point x="41" y="374" type="curve" smooth="yes"/>
      <point x="59" y="374"/>
      <point x="68" y="366"/>
      <point x="74" y="341" type="curve" smooth="yes"/>
      <point x="184" y="-25" type="line"/>
      <point x="200" y="-25" type="line"/>
      <point x="242" y="55" type="line"/>
      <point x="153" y="368" type="line" smooth="yes"/>
      <point x="140" y="414"/>
      <point x="127" y="426"/>
      <point x="104" y="426" type="curve" smooth="yes"/>
    </contour>
    <contour>
      <point x="239" y="420" type="move" name="top"/>
    </contour>
  </outline>
</glyph>
<glyph name="z" format="1">
  <advance width="376"/>
  <unicode hex="007A"/>
  <outline>
    <contour>
      <point x="-1" y="7" type="line"/>
      <point x="21" y="-10" type="line"/>
      <point x="376" y="411" type="line"/>
      <point x="354" y="429" type="line"/>
    </contour>
    <contour>
      <point x="132" y="103"/>
      <point x="116" y="98"/>
      <point x="94" y="86" type="curve"/>
      <point x="17" y="-7" type="line"/>
      <point x="51" y="16"/>
      <point x="76" y="23"/>
      <point x="97" y="23" type="curve" smooth="yes"/>
      <point x="140" y="23"/>
      <point x="167" y="-10"/>
      <point x="222" y="-10" type="curve" smooth="yes"/>
      <point x="286" y="-10"/>
      <point x="319" y="30"/>
      <point x="341" y="70" type="curve"/>
      <point x="325" y="84" type="line"/>
      <point x="303" y="59"/>
      <point x="284" y="50"/>
      <point x="266" y="50" type="curve" smooth="yes"/>
      <point x="225" y="50"/>
      <point x="205" y="103"/>
      <point x="150" y="103" type="curve" smooth="yes"/>
    </contour>
    <contour>
      <point x="103" y="431"/>
      <point x="66" y="391"/>
      <point x="42" y="351" type="curve"/>
      <point x="58" y="337" type="line"/>
      <point x="84" y="362"/>
      <point x="107" y="371"/>
      <point x="128" y="371" type="curve" smooth="yes"/>
      <point x="172" y="371"/>
      <point x="192" y="335"/>
      <point x="252" y="335" type="curve" smooth="yes"/>
      <point x="270" y="335"/>
      <point x="286" y="338"/>
      <point x="308" y="345" type="curve"/>
      <point x="354" y="428" type="line"/>
      <point x="329" y="413"/>
      <point x="305" y="405"/>
      <point x="284" y="405" type="curve" smooth="yes"/>
      <point x="245" y="405"/>
      <point x="224" y="431"/>
      <point x="170" y="431" type="curve" smooth="yes"/>
    </contour>
    <contour>
      <point x="211" y="420" type="move" name="top"/>
    </contour>
  </outline>
</glyph>
<glyph name="braceleft" format="1">
  <advance width="273"/>
  <unicode hex="007B"/>
  <outline>
    <contour>
      <point x="260" y="675" type="line" smooth="yes"/>
      <point x="185" y="675"/>
      <point x="160" y="654"/>
      <point x="150" y="582" type="curve" smooth="yes"/>
      <point x="118" y="358" type="line" smooth="yes"/>
      <point x="111" y="305"/>
      <point x="90" y="285"/>
      <point x="38" y="277" type="curve"/>
      <point x="35" y="257" type="line"/>
      <point x="80" y="246"/>
      <point x="95" y="240"/>
      <point x="95" y="205" type="curve" smooth="yes"/>
      <point x="95" y="157"/>
      <point x="57" y="-45"/>
      <point x="57" y="-86" type="curve" smooth="yes"/>
      <point x="57" y="-132"/>
      <point x="79" y="-146"/>
      <point x="144" y="-146" type="curve" smooth="yes"/>
      <point x="179" y="-146" type="line"/>
      <point x="184" y="-116" type="line"/>
      <point x="156" y="-116" type="line" smooth="yes"/>
      <point x="135" y="-116"/>
      <point x="126" y="-102"/>
      <point x="126" y="-78" type="curve" smooth="yes"/>
      <point x="126" y="-47"/>
      <point x="163" y="167"/>
      <point x="163" y="199" type="curve" smooth="yes"/>
      <point x="163" y="241"/>
      <point x="138" y="253"/>
      <point x="79" y="267" type="curve"/>
      <point x="152" y="280"/>
      <point x="177" y="297"/>
      <point x="186" y="358" type="curve" smooth="yes"/>
      <point x="219" y="589" type="line" smooth="yes"/>
      <point x="224" y="626"/>
      <point x="239" y="645"/>
      <point x="263" y="645" type="curve" smooth="yes"/>
      <point x="291" y="645" type="line"/>
      <point x="295" y="675" type="line"/>
    </contour>
  </outline>
</glyph>
<glyph name="asciitilde" format="1">
  <advance width="409"/>
  <unicode hex="007E"/>
  <outline>
    <contour>
      <point x="338" y="279"/>
      <point x="317" y="263"/>
      <point x="293" y="263" type="curve" smooth="yes"/>
      <point x="245" y="263"/>
      <point x="197" y="328"/>
      <point x="137" y="328" type="curve" smooth="yes"/>
      <point x="95" y="328"/>
      <point x="60" y="304"/>
      <point x="28" y="255" type="curve"/>
      <point x="53" y="219" type="line"/>
      <point x="90" y="270"/>
      <point x="106" y="280"/>
      <point x="131" y="280" type="curve" smooth="yes"/>
      <point x="178" y="280"/>
      <point x="228" y="215"/>
      <point x="286" y="215" type="curve" smooth="yes"/>
      <point x="327" y="215"/>
      <point x="369" y="245"/>
      <point x="400" y="292" type="curve"/>
      <point x="374" y="329" type="line"/>
    </contour>
  </outline>
</glyph>
<glyph name="sterling" format="1">
  <advance width="491"/>
  <unicode hex="00A3"/>
  <outline>
    <contour>
      <point x="216" y="607"/>
      <point x="158" y="547"/>
      <point x="139" y="410" type="curve" smooth="yes"/>
      <point x="103" y="156" type="line"/>
      <point x="94" y="94"/>
      <point x="53" y="34"/>
      <point x="-3" y="1" type="curve"/>
      <point x="-2" y="-3" type="line"/>
      <point x="18" y="-2"/>
      <point x="61" y="0"/>
      <point x="87" y="0" type="curve" smooth="yes"/>
      <point x="334" y="0" type="line"/>
      <point x="354" y="0"/>
      <point x="402" y="-3"/>
      <point x="411" y="-3" type="curve"/>
      <point x="444" y="168" type="line"/>
      <point x="417" y="168" type="line"/>
      <point x="406" y="94"/>
      <point x="378" y="73"/>
      <point x="278" y="73" type="curve" smooth="yes"/>
      <point x="91" y="73" type="line"/>
      <point x="93" y="67" type="line"/>
      <point x="131" y="74"/>
      <point x="201" y="166"/>
      <point x="209" y="226" type="curve"/>
      <point x="225" y="356" type="line" smooth="yes"/>
      <point x="233" y="422"/>
      <point x="227" y="494"/>
      <point x="250" y="539" type="curve" smooth="yes"/>
      <point x="265" y="567"/>
      <point x="288" y="584"/>
      <point x="329" y="584" type="curve" smooth="yes"/>
      <point x="361" y="584"/>
      <point x="377" y="573"/>
      <point x="377" y="552" type="curve" smooth="yes"/>
      <point x="377" y="535"/>
      <point x="365" y="528"/>
      <point x="365" y="511" type="curve" smooth="yes"/>
      <point x="365" y="494"/>
      <point x="383" y="480"/>
      <point x="401" y="480" type="curve" smooth="yes"/>
      <point x="424" y="480"/>
      <point x="449" y="501"/>
      <point x="449" y="528" type="curve" smooth="yes"/>
      <point x="449" y="573"/>
      <point x="403" y="607"/>
      <point x="338" y="607" type="curve" smooth="yes"/>
    </contour>
    <contour>
      <point x="50" y="329" type="line"/>
      <point x="47" y="306" type="line"/>
      <point x="335" y="306" type="line"/>
      <point x="338" y="329" type="line"/>
    </contour>
  </outline>
</glyph>
<glyph name="section" format="1">
  <advance width="436"/>
  <unicode hex="00A7"/>
  <outline>
    <contour>
      <point x="178" y="607"/>
      <point x="98" y="546"/>
      <point x="98" y="459" type="curve" smooth="yes"/>
      <point x="98" y="415"/>
      <point x="125" y="381"/>
      <point x="188" y="333" type="curve" smooth="yes"/>
      <point x="303" y="245" type="line" smooth="yes"/>
      <point x="329" y="225"/>
      <point x="338" y="210"/>
      <point x="338" y="193" type="curve" smooth="yes"/>
      <point x="338" y="157"/>
      <point x="322" y="137"/>
      <point x="274" y="119" type="curve"/>
      <point x="293" y="103" type="line"/>
      <point x="368" y="125"/>
      <point x="408" y="169"/>
      <point x="408" y="237" type="curve" smooth="yes"/>
      <point x="408" y="281"/>
      <point x="383" y="309"/>
      <point x="337" y="343" type="curve" smooth="yes"/>
      <point x="225" y="428" type="line" smooth="yes"/>
      <point x="197" y="449"/>
      <point x="177" y="468"/>
      <point x="177" y="498" type="curve" smooth="yes"/>
      <point x="177" y="554"/>
      <point x="229" y="584"/>
      <point x="279" y="584" type="curve" smooth="yes"/>
      <point x="317" y="584"/>
      <point x="358" y="567"/>
      <point x="358" y="543" type="curve" smooth="yes"/>
      <point x="358" y="522"/>
      <point x="331" y="518"/>
      <point x="331" y="490" type="curve" smooth="yes"/>
      <point x="331" y="469"/>
      <point x="348" y="458"/>
      <point x="368" y="458" type="curve" smooth="yes"/>
      <point x="400" y="458"/>
      <point x="429" y="484"/>
      <point x="429" y="525" type="curve" smooth="yes"/>
      <point x="429" y="576"/>
      <point x="373" y="607"/>
      <point x="292" y="607" type="curve" smooth="yes"/>
    </contour>
    <contour>
      <point x="80" y="347"/>
      <point x="40" y="303"/>
      <point x="40" y="235" type="curve" smooth="yes"/>
      <point x="40" y="191"/>
      <point x="65" y="163"/>
      <point x="111" y="129" type="curve" smooth="yes"/>
      <point x="223" y="44" type="line" smooth="yes"/>
      <point x="251" y="23"/>
      <point x="271" y="4"/>
      <point x="271" y="-26" type="curve" smooth="yes"/>
      <point x="271" y="-82"/>
      <point x="219" y="-112"/>
      <point x="169" y="-112" type="curve" smooth="yes"/>
      <point x="131" y="-112"/>
      <point x="90" y="-95"/>
      <point x="90" y="-71" type="curve" smooth="yes"/>
      <point x="90" y="-50"/>
      <point x="117" y="-46"/>
      <point x="117" y="-18" type="curve" smooth="yes"/>
      <point x="117" y="3"/>
      <point x="100" y="14"/>
      <point x="80" y="14" type="curve" smooth="yes"/>
      <point x="48" y="14"/>
      <point x="19" y="-12"/>
      <point x="19" y="-53" type="curve" smooth="yes"/>
      <point x="19" y="-104"/>
      <point x="75" y="-135"/>
      <point x="156" y="-135" type="curve" smooth="yes"/>
      <point x="270" y="-135"/>
      <point x="350" y="-74"/>
      <point x="350" y="13" type="curve" smooth="yes"/>
      <point x="350" y="57"/>
      <point x="323" y="91"/>
      <point x="260" y="139" type="curve" smooth="yes"/>
      <point x="145" y="227" type="line" smooth="yes"/>
      <point x="119" y="247"/>
      <point x="110" y="262"/>
      <point x="110" y="279" type="curve" smooth="yes"/>
      <point x="110" y="315"/>
      <point x="126" y="335"/>
      <point x="174" y="353" type="curve"/>
      <point x="155" y="369" type="line"/>
    </contour>
  </outline>
</glyph>
<glyph name="copyright" format="1">
  <advance width="697"/>
  <unicode hex="00A9"/>
  <outline>
    <contour>
      <point x="51" y="393"/>
      <point x="51" y="260" type="curve" smooth="yes"/>
      <point x="51" y="109"/>
      <point x="166" y="-10"/>
      <point x="323" y="-10" type="curve" smooth="yes"/>
      <point x="579" y="-10"/>
      <point x="672" y="203"/>
      <point x="672" y="336" type="curve" smooth="yes"/>
      <point x="672" y="488"/>
      <point x="556" y="607"/>
      <point x="399" y="607" type="curve" smooth="yes"/>
      <point x="144" y="607"/>
    </contour>
    <contour>
      <point x="162" y="577"/>
      <point x="394" y="577" type="curve" smooth="yes"/>
      <point x="534" y="577"/>
      <point x="638" y="469"/>
      <point x="638" y="332" type="curve" smooth="yes"/>
      <point x="638" y="220"/>
      <point x="559" y="20"/>
      <point x="326" y="20" type="curve" smooth="yes"/>
      <point x="186" y="20"/>
      <point x="83" y="127"/>
      <point x="83" y="265" type="curve" smooth="yes"/>
      <point x="83" y="377"/>
    </contour>
    <contour>
      <point x="192" y="348"/>
      <point x="192" y="278" type="curve" smooth="yes"/>
      <point x="192" y="196"/>
      <point x="256" y="131"/>
      <point x="344" y="131" type="curve" smooth="yes"/>
      <point x="394" y="131"/>
      <point x="436" y="156"/>
      <point x="471" y="156" type="curve" smooth="yes"/>
      <point x="475" y="156" type="line"/>
      <point x="475" y="187"/>
      <point x="475" y="177"/>
      <point x="484" y="229" type="curve"/>
      <point x="462" y="229" type="line"/>
      <point x="448" y="186"/>
      <point x="409" y="153"/>
      <point x="360" y="153" type="curve" smooth="yes"/>
      <point x="313" y="153"/>
      <point x="279" y="205"/>
      <point x="279" y="273" type="curve" smooth="yes"/>
      <point x="279" y="325"/>
      <point x="310" y="451"/>
      <point x="395" y="451" type="curve" smooth="yes"/>
      <point x="437" y="451"/>
      <point x="474" y="416"/>
      <point x="478" y="375" type="curve"/>
      <point x="497" y="375" type="line"/>
      <point x="497" y="402"/>
      <point x="501" y="417"/>
      <point x="506" y="447" type="curve"/>
      <point x="464" y="447"/>
      <point x="452" y="471"/>
      <point x="389" y="471" type="curve" smooth="yes"/>
      <point x="242" y="471"/>
    </contour>
  </outline>
</glyph>
<glyph name="registered" format="1">
  <advance width="464"/>
  <unicode hex="00AE"/>
  <outline>
    <contour>
      <point x="150" y="607"/>
      <point x="61" y="525"/>
      <point x="61" y="413" type="curve" smooth="yes"/>
      <point x="61" y="303"/>
      <point x="150" y="220"/>
      <point x="261" y="220" type="curve" smooth="yes"/>
      <point x="370" y="220"/>
      <point x="461" y="303"/>
      <point x="461" y="413" type="curve" smooth="yes"/>
      <point x="461" y="525"/>
      <point x="370" y="607"/>
      <point x="261" y="607" type="curve" smooth="yes"/>
    </contour>
    <contour>
      <point x="357" y="581"/>
      <point x="431" y="512"/>
      <point x="431" y="413" type="curve" smooth="yes"/>
      <point x="431" y="315"/>
      <point x="357" y="246"/>
      <point x="260" y="246" type="curve" smooth="yes"/>
      <point x="163" y="246"/>
      <point x="90" y="315"/>
      <point x="90" y="413" type="curve" smooth="yes"/>
      <point x="90" y="512"/>
      <point x="163" y="581"/>
      <point x="260" y="581" type="curve" smooth="yes"/>
    </contour>
    <contour>
      <point x="166" y="496" type="line"/>
      <point x="176" y="496" type="line" smooth="yes"/>
      <point x="182" y="496"/>
      <point x="184" y="493"/>
      <point x="184" y="489" type="curve" smooth="yes"/>
      <point x="184" y="342" type="line" smooth="yes"/>
      <point x="184" y="337"/>
      <point x="182" y="335"/>
      <point x="178" y="335" type="curve" smooth="yes"/>
      <point x="166" y="335" type="line"/>
      <point x="166" y="317" type="line"/>
      <point x="267" y="317" type="line"/>
      <point x="267" y="335" type="line"/>
      <point x="250" y="335" type="line" smooth="yes"/>
      <point x="246" y="335"/>
      <point x="243" y="337"/>
      <point x="243" y="342" type="curve" smooth="yes"/>
      <point x="243" y="400" type="line"/>
      <point x="253" y="400" type="line" smooth="yes"/>
      <point x="272" y="400"/>
      <point x="292" y="389"/>
      <point x="292" y="362" type="curve" smooth="yes"/>
      <point x="292" y="348" type="line" smooth="yes"/>
      <point x="292" y="326"/>
      <point x="307" y="317"/>
      <point x="333" y="317" type="curve" smooth="yes"/>
      <point x="370" y="317" type="line"/>
      <point x="370" y="334" type="line"/>
      <point x="352" y="329"/>
      <point x="350" y="344"/>
      <point x="350" y="356" type="curve" smooth="yes"/>
      <point x="350" y="392"/>
      <point x="316" y="411"/>
      <point x="289" y="411" type="curve"/>
      <point x="324" y="417"/>
      <point x="345" y="437"/>
      <point x="345" y="466" type="curve" smooth="yes"/>
      <point x="345" y="499"/>
      <point x="320" y="514"/>
      <point x="268" y="514" type="curve" smooth="yes"/>
      <point x="166" y="514" type="line"/>
    </contour>
    <contour>
      <point x="277" y="496"/>
      <point x="287" y="485"/>
      <point x="287" y="459" type="curve" smooth="yes"/>
      <point x="287" y="436"/>
      <point x="278" y="419"/>
      <point x="262" y="419" type="curve" smooth="yes"/>
      <point x="243" y="419" type="line"/>
      <point x="243" y="493" type="line" smooth="yes"/>
      <point x="243" y="495"/>
      <point x="245" y="496"/>
      <point x="248" y="496" type="curve" smooth="yes"/>
      <point x="257" y="496" type="line" smooth="yes"/>
    </contour>
  </outline>
</glyph>
<glyph name="degree" format="1">
  <advance width="362"/>
  <unicode hex="00B0"/>
  <outline>
    <contour>
      <point x="127" y="446"/>
      <point x="160" y="411"/>
      <point x="209" y="411" type="curve" smooth="yes"/>
      <point x="269" y="411"/>
      <point x="318" y="460"/>
      <point x="318" y="519" type="curve" smooth="yes"/>
      <point x="318" y="572"/>
      <point x="285" y="607"/>
      <point x="236" y="607" type="curve" smooth="yes"/>
      <point x="176" y="607"/>
      <point x="127" y="558"/>
      <point x="127" y="498" type="curve" smooth="yes"/>
    </contour>
    <contour>
      <point x="170" y="537"/>
      <point x="197" y="565"/>
      <point x="230" y="565" type="curve" smooth="yes"/>
      <point x="256" y="565"/>
      <point x="273" y="545"/>
      <point x="273" y="516" type="curve" smooth="yes"/>
      <point x="273" y="481"/>
      <point x="247" y="453"/>
      <point x="215" y="453" type="curve" smooth="yes"/>
      <point x="188" y="453"/>
      <point x="170" y="473"/>
      <point x="170" y="502" type="curve" smooth="yes"/>
    </contour>
  </outline>
</glyph>
<glyph name="plusminus" format="1">
  <advance width="446"/>
  <unicode hex="00B1"/>
  <outline>
    <contour>
      <point x="240" y="506" type="line"/>
      <point x="213" y="315" type="line"/>
      <point x="33" y="315" type="line"/>
      <point x="28" y="274" type="line"/>
      <point x="208" y="274" type="line"/>
      <point x="180" y="80" type="line"/>
      <point x="226" y="80" type="line"/>
      <point x="254" y="274" type="line"/>
      <point x="436" y="274" type="line"/>
      <point x="441" y="315" type="line"/>
      <point x="259" y="315" type="line"/>
      <point x="286" y="506" type="line"/>
    </contour>
    <contour>
      <point x="-5" y="41" type="line"/>
      <point x="-11" y="0" type="line"/>
      <point x="397" y="0" type="line"/>
      <point x="403" y="41" type="line"/>
    </contour>
  </outline>
</glyph>
<glyph name="acute" format="1">
  <advance width="266"/>
  <unicode hex="00B4"/>
  <outline>
    <contour>
      <point x="290" y="635"/>
      <point x="260" y="653"/>
      <point x="236" y="653" type="curve" smooth="yes"/>
      <point x="221" y="653"/>
      <point x="216" y="648"/>
      <point x="201" y="632" type="curve" smooth="yes"/>
      <point x="94" y="524" type="line" smooth="yes"/>
      <point x="84" y="514"/>
      <point x="74" y="505"/>
      <point x="74" y="500" type="curve" smooth="yes"/>
      <point x="74" y="496"/>
      <point x="78" y="493"/>
      <point x="88" y="493" type="curve" smooth="yes"/>
      <point x="96" y="493"/>
      <point x="105" y="499"/>
      <point x="109" y="502" type="curve" smooth="yes"/>
      <point x="280" y="615" type="line" smooth="yes"/>
      <point x="284" y="618"/>
      <point x="290" y="622"/>
      <point x="290" y="627" type="curve" smooth="yes"/>
    </contour>
    <contour>
      <point x="131" y="420" type="move" name="_top"/>
    </contour>
  </outline>
</glyph>
<glyph name="onesuperior" format="1">
  <advance width="192"/>
  <unicode hex="00B9"/>
  <outline>
    <contour>
      <point x="173" y="683" type="line"/>
      <point x="142" y="656"/>
      <point x="117" y="638"/>
      <point x="83" y="629" type="curve"/>
      <point x="84" y="603" type="line"/>
      <point x="99" y="608"/>
      <point x="119" y="616"/>
      <point x="123" y="616" type="curve" smooth="yes"/>
      <point x="128" y="616"/>
      <point x="130" y="611"/>
      <point x="129" y="604" type="curve" smooth="yes"/>
      <point x="106" y="439" type="line" smooth="yes"/>
      <point x="104" y="428"/>
      <point x="101" y="421"/>
      <point x="94" y="421" type="curve" smooth="yes"/>
      <point x="53" y="422" type="line"/>
      <point x="50" y="404" type="line"/>
      <point x="203" y="404" type="line"/>
      <point x="206" y="422" type="line"/>
      <point x="176" y="421" type="line" smooth="yes"/>
      <point x="168" y="421"/>
      <point x="164" y="429"/>
      <point x="166" y="439" type="curve" smooth="yes"/>
      <point x="200" y="683" type="line"/>
    </contour>
  </outline>
</glyph>
<glyph name="ordmasculine" format="1">
  <advance width="339"/>
  <unicode hex="00BA"/>
  <outline>
    <contour>
      <point x="77" y="394"/>
      <point x="111" y="344"/>
      <point x="187" y="344" type="curve" smooth="yes"/>
      <point x="281" y="344"/>
      <point x="337" y="407"/>
      <point x="337" y="504" type="curve" smooth="yes"/>
      <point x="337" y="577"/>
      <point x="295" y="618"/>
      <point x="226" y="618" type="curve" smooth="yes"/>
      <point x="137" y="618"/>
      <point x="77" y="556"/>
      <point x="77" y="458" type="curve" smooth="yes"/>
    </contour>
    <contour>
      <point x="146" y="561"/>
      <point x="178" y="594"/>
      <point x="222" y="594" type="curve" smooth="yes"/>
      <point x="255" y="594"/>
      <point x="267" y="575"/>
      <point x="267" y="527" type="curve" smooth="yes"/>
      <point x="267" y="388"/>
      <point x="232" y="368"/>
      <point x="191" y="368" type="curve" smooth="yes"/>
      <point x="158" y="368"/>
      <point x="146" y="388"/>
      <point x="146" y="432" type="curve" smooth="yes"/>
    </contour>
  </outline>
</glyph>
<glyph name="Thorn" format="1">
  <advance width="508"/>
  <unicode hex="00DE"/>
  <outline>
    <contour>
      <point x="102" y="597" type="line"/>
      <point x="98" y="567" type="line"/>
      <point x="137" y="569" type="line" smooth="yes"/>
      <point x="149" y="569"/>
      <point x="153" y="559"/>
      <point x="151" y="548" type="curve" smooth="yes"/>
      <point x="81" y="49" type="line" smooth="yes"/>
      <point x="79" y="35"/>
      <point x="73" y="27"/>
      <point x="61" y="27" type="curve" smooth="yes"/>
      <point x="22" y="29" type="line"/>
      <point x="18" y="0" type="line"/>
      <point x="233" y="0" type="line"/>
      <point x="237" y="29" type="line"/>
      <point x="188" y="27" type="line" smooth="yes"/>
      <point x="175" y="26"/>
      <point x="172" y="36"/>
      <point x="174" y="49" type="curve" smooth="yes"/>
      <point x="190" y="162" type="line"/>
      <point x="288" y="162" type="line" smooth="yes"/>
      <point x="414" y="162"/>
      <point x="494" y="243"/>
      <point x="494" y="362" type="curve" smooth="yes"/>
      <point x="494" y="454"/>
      <point x="436" y="496"/>
      <point x="314" y="496" type="curve" smooth="yes"/>
      <point x="237" y="496" type="line"/>
      <point x="244" y="548" type="line" smooth="yes"/>
      <point x="246" y="559"/>
      <point x="254" y="569"/>
      <point x="264" y="569" type="curve" smooth="yes"/>
      <point x="313" y="567" type="line"/>
      <point x="317" y="597" type="line"/>
    </contour>
    <contour>
      <point x="361" y="471"/>
      <point x="398" y="425"/>
      <point x="398" y="357" type="curve" smooth="yes"/>
      <point x="398" y="264"/>
      <point x="333" y="188"/>
      <point x="270" y="188" type="curve" smooth="yes"/>
      <point x="204" y="188" type="line" smooth="yes"/>
      <point x="198" y="188"/>
      <point x="194" y="194"/>
      <point x="195" y="201" type="curve" smooth="yes"/>
      <point x="233" y="471" type="line"/>
      <point x="295" y="471" type="line" smooth="yes"/>
    </contour>
  </outline>
</glyph>
<glyph name="germandbls" format="1">
  <advance width="558"/>
  <unicode hex="00DF"/>
  <outline>
    <contour>
      <point x="80" y="72" type="line" smooth="yes"/>
      <point x="58" y="-123"/>
      <point x="34" y="-218"/>
      <point x="-29" y="-218" type="curve" smooth="yes"/>
      <point x="-48" y="-218"/>
      <point x="-60" y="-209"/>
      <point x="-60" y="-193" type="curve" smooth="yes"/>
      <point x="-60" y="-182"/>
      <point x="-54" y="-174"/>
      <point x="-54" y="-162" type="curve" smooth="yes"/>
      <point x="-54" y="-141"/>
      <point x="-73" y="-134"/>
      <point x="-91" y="-134" type="curve" smooth="yes"/>
      <point x="-123" y="-134"/>
      <point x="-136" y="-157"/>
      <point x="-136" y="-178" type="curve" smooth="yes"/>
      <point x="-136" y="-219"/>
      <point x="-89" y="-245"/>
      <point x="-37" y="-245" type="curve" smooth="yes"/>
      <point x="90" y="-245"/>
      <point x="148" y="-94"/>
      <point x="170" y="102" type="curve" smooth="yes"/>
      <point x="209" y="454" type="line" smooth="yes"/>
      <point x="231" y="653"/>
      <point x="295" y="703"/>
      <point x="356" y="703" type="curve" smooth="yes"/>
      <point x="399" y="703"/>
      <point x="428" y="678"/>
      <point x="428" y="623" type="curve" smooth="yes"/>
      <point x="428" y="578"/>
      <point x="409" y="553"/>
      <point x="384" y="534" type="curve" smooth="yes"/>
      <point x="338" y="498"/>
      <point x="270" y="484"/>
      <point x="270" y="400" type="curve" smooth="yes"/>
      <point x="270" y="265"/>
      <point x="445" y="234"/>
      <point x="445" y="96" type="curve" smooth="yes"/>
      <point x="445" y="33"/>
      <point x="409" y="17"/>
      <point x="362" y="17" type="curve" smooth="yes"/>
      <point x="314" y="17"/>
      <point x="298" y="34"/>
      <point x="298" y="57" type="curve" smooth="yes"/>
      <point x="298" y="78"/>
      <point x="311" y="91"/>
      <point x="311" y="111" type="curve" smooth="yes"/>
      <point x="311" y="130"/>
      <point x="298" y="137"/>
      <point x="279" y="137" type="curve" smooth="yes"/>
      <point x="240" y="137"/>
      <point x="225" y="106"/>
      <point x="225" y="80" type="curve" smooth="yes"/>
      <point x="225" y="31"/>
      <point x="275" y="-10"/>
      <point x="353" y="-10" type="curve" smooth="yes"/>
      <point x="444" y="-10"/>
      <point x="522" y="47"/>
      <point x="522" y="144" type="curve" smooth="yes"/>
      <point x="522" y="289"/>
      <point x="346" y="329"/>
      <point x="346" y="424" type="curve" smooth="yes"/>
      <point x="346" y="463"/>
      <point x="377" y="487"/>
      <point x="411" y="510" type="curve" smooth="yes"/>
      <point x="454" y="538"/>
      <point x="502" y="566"/>
      <point x="502" y="624" type="curve" smooth="yes"/>
      <point x="502" y="684"/>
      <point x="450" y="730"/>
      <point x="365" y="730" type="curve" smooth="yes"/>
      <point x="222" y="730"/>
      <point x="139" y="601"/>
      <point x="121" y="440" type="curve" smooth="yes"/>
    </contour>
  </outline>
</glyph>
<glyph name="eth" format="1">
  <advance width="449"/>
  <unicode hex="00F0"/>
  <outline>
    <contour>
      <point x="286" y="566" type="line"/>
      <point x="248" y="592"/>
      <point x="201" y="607"/>
      <point x="158" y="607" type="curve"/>
      <point x="136" y="585" type="line"/>
      <point x="166" y="585"/>
      <point x="197" y="569"/>
      <point x="235" y="538" type="curve"/>
      <point x="134" y="483" type="line"/>
      <point x="145" y="456" type="line"/>
      <point x="256" y="517" type="line"/>
      <point x="287" y="491"/>
      <point x="314" y="438"/>
      <point x="323" y="384" type="curve"/>
      <point x="337" y="395" type="line"/>
      <point x="312" y="419"/>
      <point x="283" y="430"/>
      <point x="251" y="430" type="curve" smooth="yes"/>
      <point x="150" y="431"/>
      <point x="28" y="319"/>
      <point x="28" y="151" type="curve" smooth="yes"/>
      <point x="28" y="74"/>
      <point x="61" y="-10"/>
      <point x="175" y="-10" type="curve" smooth="yes"/>
      <point x="315" y="-10"/>
      <point x="422" y="112"/>
      <point x="422" y="269" type="curve" smooth="yes"/>
      <point x="422" y="387"/>
      <point x="382" y="486"/>
      <point x="310" y="546" type="curve"/>
      <point x="396" y="594" type="line"/>
      <point x="386" y="621" type="line"/>
    </contour>
    <contour>
      <point x="303" y="402"/>
      <point x="334" y="362"/>
      <point x="334" y="276" type="curve" smooth="yes"/>
      <point x="334" y="221"/>
      <point x="321" y="164"/>
      <point x="300" y="119" type="curve" smooth="yes"/>
      <point x="274" y="62"/>
      <point x="235" y="22"/>
      <point x="192" y="22" type="curve" smooth="yes"/>
      <point x="147" y="22"/>
      <point x="116" y="65"/>
      <point x="116" y="149" type="curve" smooth="yes"/>
      <point x="116" y="201"/>
      <point x="128" y="255"/>
      <point x="148" y="300" type="curve" smooth="yes"/>
      <point x="174" y="359"/>
      <point x="214" y="402"/>
      <point x="259" y="402" type="curve" smooth="yes"/>
    </contour>
  </outline>
</glyph>
<glyph name="dotlessi" format="1">
  <advance width="256"/>
  <unicode hex="0131"/>
  <outline>
    <contour>
      <point x="201" y="80" type="line"/>
      <point x="184" y="69"/>
      <point x="170" y="67"/>
      <point x="165" y="67" type="curve" smooth="yes"/>
      <point x="149" y="67"/>
      <point x="148" y="83"/>
      <point x="148" y="94" type="curve" smooth="yes"/>
      <point x="148" y="118"/>
      <point x="154" y="173"/>
      <point x="164" y="230" type="curve" smooth="yes"/>
      <point x="178" y="310"/>
      <point x="196" y="392"/>
      <point x="196" y="404" type="curve" smooth="yes"/>
      <point x="196" y="423"/>
      <point x="182" y="426"/>
      <point x="165" y="426" type="curve" smooth="yes"/>
      <point x="131" y="426"/>
      <point x="90" y="416"/>
      <point x="51" y="400" type="curve"/>
      <point x="56" y="371" type="line"/>
      <point x="60" y="372"/>
      <point x="67" y="373"/>
      <point x="72" y="373" type="curve" smooth="yes"/>
      <point x="86" y="373"/>
      <point x="103" y="367"/>
      <point x="103" y="347" type="curve" smooth="yes"/>
      <point x="103" y="325"/>
      <point x="99" y="283"/>
      <point x="90" y="223" type="curve" smooth="yes"/>
      <point x="79" y="146"/>
      <point x="64" y="68"/>
      <point x="64" y="36" type="curve" smooth="yes"/>
      <point x="64" y="5"/>
      <point x="79" y="-10"/>
      <point x="102" y="-10" type="curve" smooth="yes"/>
      <point x="131" y="-10"/>
      <point x="171" y="16"/>
      <point x="213" y="60" type="curve"/>
    </contour>
    <contour>
      <point x="159" y="13" type="move" name="ogonek"/>
    </contour>
    <contour>
      <point x="156" y="420" type="move" name="top"/>
    </contour>
  </outline>
</glyph>
<glyph name="lacute" format="1">
  <advance width="236"/>
  <unicode hex="013A"/>
  <outline>
    <contour>
      <point x="336" y="855"/>
      <point x="309" y="878"/>
      <point x="291" y="878" type="curve" smooth="yes"/>
      <point x="284" y="878"/>
      <point x="277" y="876"/>
      <point x="263" y="866" type="curve" smooth="yes"/>
      <point x="138" y="783" type="line" smooth="yes"/>
      <point x="129" y="777"/>
      <point x="124" y="771"/>
      <point x="123" y="767" type="curve" smooth="yes"/>
      <point x="123" y="761"/>
      <point x="129" y="758"/>
      <point x="136" y="758" type="curve" smooth="yes"/>
      <point x="143" y="758"/>
      <point x="149" y="760"/>
      <point x="154" y="762" type="curve" smooth="yes"/>
      <point x="324" y="834" type="line" smooth="yes"/>
      <point x="330" y="837"/>
      <point x="334" y="840"/>
      <point x="335" y="845" type="curve" smooth="yes"/>
    </contour>
    <component base="l"/>
  </outline>
</glyph>
<glyph name="dotlessj" format="1">
  <advance width="242"/>
  <unicode hex="0237"/>
  <outline>
    <contour>
      <point x="128" y="426"/>
      <point x="87" y="416"/>
      <point x="48" y="400" type="curve"/>
      <point x="53" y="371" type="line"/>
      <point x="57" y="372"/>
      <point x="63" y="373"/>
      <point x="70" y="373" type="curve" smooth="yes"/>
      <point x="83" y="373"/>
      <point x="100" y="369"/>
      <point x="100" y="342" type="curve" smooth="yes"/>
      <point x="100" y="327"/>
      <point x="95" y="284"/>
      <point x="87" y="225" type="curve" smooth="yes"/>
      <point x="66" y="72" type="line" smooth="yes"/>
      <point x="39" y="-123"/>
      <point x="25" y="-218"/>
      <point x="-30" y="-218" type="curve" smooth="yes"/>
      <point x="-47" y="-218"/>
      <point x="-60" y="-209"/>
      <point x="-60" y="-193" type="curve" smooth="yes"/>
      <point x="-60" y="-182"/>
      <point x="-54" y="-174"/>
      <point x="-54" y="-162" type="curve" smooth="yes"/>
      <point x="-54" y="-141"/>
      <point x="-73" y="-134"/>
      <point x="-91" y="-134" type="curve" smooth="yes"/>
      <point x="-123" y="-134"/>
      <point x="-136" y="-157"/>
      <point x="-136" y="-178" type="curve" smooth="yes"/>
      <point x="-136" y="-219"/>
      <point x="-89" y="-245"/>
      <point x="-37" y="-245" type="curve" smooth="yes"/>
      <point x="66" y="-245"/>
      <point x="113" y="-148"/>
      <point x="134" y="11" type="curve" smooth="yes"/>
      <point x="145" y="95"/>
      <point x="193" y="406"/>
      <point x="193" y="403" type="curve" smooth="yes"/>
      <point x="193" y="423"/>
      <point x="180" y="426"/>
      <point x="162" y="426" type="curve" smooth="yes"/>
    </contour>
    <contour>
      <point x="151" y="420" type="move" name="top"/>
    </contour>
  </outline>
</glyph>
<glyph name="caron" format="1">
  <advance width="365"/>
  <unicode hex="02C7"/>
  <outline>
    <contour>
      <point x="373" y="657"/>
      <point x="361" y="650"/>
      <point x="352" y="645" type="curve" smooth="yes"/>
      <point x="232" y="572" type="line"/>
      <point x="135" y="645" type="line" smooth="yes"/>
      <point x="128" y="650"/>
      <point x="115" y="657"/>
      <point x="108" y="657" type="curve" smooth="yes"/>
      <point x="97" y="657"/>
      <point x="95" y="651"/>
      <point x="95" y="649" type="curve" smooth="yes"/>
      <point x="95" y="641"/>
      <point x="126" y="620"/>
      <point x="160" y="574" type="curve" smooth="yes"/>
      <point x="196" y="526" type="line" smooth="yes"/>
      <point x="208" y="510"/>
      <point x="219" y="501"/>
      <point x="222" y="501" type="curve" smooth="yes"/>
      <point x="227" y="501"/>
      <point x="240" y="511"/>
      <point x="256" y="526" type="curve" smooth="yes"/>
      <point x="306" y="574" type="line" smooth="yes"/>
      <point x="352" y="618"/>
      <point x="392" y="642"/>
      <point x="392" y="650" type="curve" smooth="yes"/>
      <point x="392" y="653"/>
      <point x="390" y="657"/>
      <point x="381" y="657" type="curve" smooth="yes"/>
    </contour>
    <contour>
      <point x="213" y="420" type="move" name="_top"/>
    </contour>
  </outline>
</glyph>
<glyph name="breve" format="1">
  <advance width="319"/>
  <unicode hex="02D8"/>
  <outline>
    <contour>
      <point x="302" y="642" type="line"/>
      <point x="289" y="606"/>
      <point x="259" y="568"/>
      <point x="209" y="568" type="curve" smooth="yes"/>
      <point x="157" y="568"/>
      <point x="141" y="606"/>
      <point x="138" y="642" type="curve"/>
      <point x="94" y="642" type="line"/>
      <point x="92" y="569"/>
      <point x="127" y="518"/>
      <point x="202" y="518" type="curve" smooth="yes"/>
      <point x="278" y="518"/>
      <point x="327" y="569"/>
      <point x="345" y="642" type="curve"/>
    </contour>
    <contour>
      <point x="190" y="420" type="move" name="_top"/>
    </contour>
  </outline>
</glyph>
<glyph name="ogonek" format="1">
  <advance width="233"/>
  <unicode hex="02DB"/>
  <outline>
    <contour>
      <point x="68" y="14" type="line"/>
      <point x="11" y="-13"/>
      <point x="-19" y="-55"/>
      <point x="-19" y="-97" type="curve" smooth="yes"/>
      <point x="-19" y="-138"/>
      <point x="11" y="-159"/>
      <point x="44" y="-159" type="curve" smooth="yes"/>
      <point x="86" y="-159"/>
      <point x="129" y="-137"/>
      <point x="165" y="-99" type="curve"/>
      <point x="153" y="-85" type="line"/>
      <point x="128" y="-105"/>
      <point x="105" y="-116"/>
      <point x="84" y="-116" type="curve" smooth="yes"/>
      <point x="52" y="-116"/>
      <point x="39" y="-96"/>
      <point x="39" y="-71" type="curve" smooth="yes"/>
      <point x="39" y="-35"/>
      <point x="62" y="-3"/>
      <point x="97" y="14" type="curve"/>
    </contour>
    <contour>
      <point x="97" y="14" type="move" name="_ogonek"/>
    </contour>
  </outline>
</glyph>
<glyph name="tilde" format="1">
  <advance width="285"/>
  <unicode hex="02DC"/>
  <outline>
    <contour>
      <point x="119" y="621"/>
      <point x="86" y="579"/>
      <point x="79" y="530" type="curve"/>
      <point x="99" y="530" type="line"/>
      <point x="103" y="554"/>
      <point x="119" y="572"/>
      <point x="138" y="572" type="curve" smooth="yes"/>
      <point x="178" y="572"/>
      <point x="252" y="529"/>
      <point x="296" y="529" type="curve" smooth="yes"/>
      <point x="333" y="529"/>
      <point x="366" y="571"/>
      <point x="373" y="620" type="curve"/>
      <point x="353" y="620" type="line"/>
      <point x="350" y="596"/>
      <point x="333" y="578"/>
      <point x="314" y="578" type="curve" smooth="yes"/>
      <point x="275" y="578"/>
      <point x="199" y="621"/>
      <point x="156" y="621" type="curve" smooth="yes"/>
    </contour>
    <contour>
      <point x="207" y="420" type="move" name="_top"/>
    </contour>
  </outline>
</glyph>
<glyph name="hungarumlaut" format="1">
  <advance width="323"/>
  <unicode hex="02DD"/>
  <outline>
    <contour>
      <point x="292" y="653"/>
      <point x="290" y="652"/>
      <point x="283" y="644" type="curve" smooth="yes"/>
      <point x="283" y="644"/>
      <point x="259" y="606"/>
      <point x="189" y="510" type="curve" smooth="yes"/>
      <point x="187" y="506"/>
      <point x="185" y="503"/>
      <point x="185" y="500" type="curve" smooth="yes"/>
      <point x="185" y="497"/>
      <point x="189" y="493"/>
      <point x="196" y="493" type="curve" smooth="yes"/>
      <point x="201" y="493"/>
      <point x="207" y="494"/>
      <point x="213" y="499" type="curve" smooth="yes"/>
      <point x="310" y="586"/>
      <point x="331" y="607"/>
      <point x="339" y="616" type="curve" smooth="yes"/>
      <point x="345" y="623"/>
      <point x="347" y="627"/>
      <point x="347" y="629" type="curve" smooth="yes"/>
      <point x="347" y="639"/>
      <point x="318" y="653"/>
      <point x="299" y="653" type="curve" smooth="yes"/>
    </contour>
    <contour>
      <point x="180" y="653"/>
      <point x="177" y="652"/>
      <point x="171" y="644" type="curve" smooth="yes"/>
      <point x="166" y="637"/>
      <point x="154" y="622"/>
      <point x="78" y="510" type="curve" smooth="yes"/>
      <point x="75" y="506"/>
      <point x="74" y="503"/>
      <point x="74" y="500" type="curve" smooth="yes"/>
      <point x="74" y="496"/>
      <point x="77" y="493"/>
      <point x="84" y="493" type="curve" smooth="yes"/>
      <point x="90" y="493"/>
      <point x="97" y="495"/>
      <point x="101" y="499" type="curve" smooth="yes"/>
      <point x="203" y="592"/>
      <point x="219" y="607"/>
      <point x="227" y="616" type="curve" smooth="yes"/>
      <point x="233" y="622"/>
      <point x="236" y="626"/>
      <point x="236" y="628" type="curve" smooth="yes"/>
      <point x="236" y="637"/>
      <point x="207" y="653"/>
      <point x="187" y="653" type="curve" smooth="yes"/>
    </contour>
    <contour>
      <point x="175" y="420" type="move" name="_top"/>
    </contour>
  </outline>
</glyph>
<glyph name="Delta" format="1">
  <advance width="583"/>
  <unicode hex="0394"/>
  <outline>
    <contour>
      <point x="327" y="607" type="line"/>
      <point x="-4" y="0" type="line"/>
      <point x="515" y="0" type="line"/>
      <point x="355" y="607" type="line"/>
    </contour>
    <contour>
      <point x="285" y="501" type="line"/>
      <point x="412" y="14" type="line"/>
      <point x="421" y="28" type="line"/>
      <point x="25" y="28" type="line"/>
      <point x="34" y="16" type="line"/>
      <point x="299" y="501" type="line"/>
    </contour>
  </outline>
</glyph>
<glyph name="mu" format="1">
  <advance width="493"/>
  <unicode hex="03BC"/>
  <outline>
    <contour>
      <point x="50" y="420" type="line"/>
      <point x="46" y="394" type="line"/>
      <point x="82" y="396" type="line" smooth="yes"/>
      <point x="90" y="396"/>
      <point x="93" y="390"/>
      <point x="91" y="377" type="curve" smooth="yes"/>
      <point x="9" y="-195" type="line" smooth="yes"/>
      <point x="8" y="-205"/>
      <point x="0" y="-213"/>
      <point x="-6" y="-214" type="curve"/>
      <point x="-52" y="-213" type="line"/>
      <point x="-56" y="-239" type="line"/>
      <point x="145" y="-239" type="line"/>
      <point x="149" y="-213" type="line"/>
      <point x="104" y="-214" type="line" smooth="yes"/>
      <point x="96" y="-214"/>
      <point x="91" y="-206"/>
      <point x="93" y="-195" type="curve" smooth="yes"/>
      <point x="183" y="420" type="line"/>
    </contour>
    <contour>
      <point x="359" y="324" type="line"/>
      <point x="343" y="221"/>
      <point x="238" y="45"/>
      <point x="174" y="45" type="curve" smooth="yes"/>
      <point x="148" y="45"/>
      <point x="139" y="69"/>
      <point x="139" y="99" type="curve" smooth="yes"/>
      <point x="139" y="106"/>
      <point x="139" y="117"/>
      <point x="141" y="129" type="curve"/>
      <point x="62" y="80" type="line"/>
      <point x="62" y="31"/>
      <point x="88" y="-10"/>
      <point x="140" y="-10" type="curve" smooth="yes"/>
      <point x="206" y="-10"/>
      <point x="266" y="45"/>
      <point x="348" y="204" type="curve"/>
      <point x="373" y="350" type="line"/>
    </contour>
    <contour>
      <point x="370" y="411" type="line"/>
      <point x="338" y="201" type="line"/>
      <point x="328" y="131"/>
      <point x="318" y="67"/>
      <point x="318" y="36" type="curve" smooth="yes"/>
      <point x="318" y="5"/>
      <point x="323" y="-10"/>
      <point x="342" y="-10" type="curve" smooth="yes"/>
      <point x="372" y="-10"/>
      <point x="418" y="7"/>
      <point x="467" y="60" type="curve"/>
      <point x="455" y="80" type="line"/>
      <point x="438" y="69"/>
      <point x="425" y="67"/>
      <point x="417" y="67" type="curve" smooth="yes"/>
      <point x="408" y="67"/>
      <point x="404" y="73"/>
      <point x="404" y="84" type="curve" smooth="yes"/>
      <point x="404" y="126"/>
      <point x="422" y="224"/>
      <point x="462" y="428" type="curve"/>
    </contour>
  </outline>
</glyph>
<glyph name="emdash" format="1">
  <advance width="810"/>
  <unicode hex="2014"/>
  <outline>
    <contour>
      <point x="2" y="230" type="line"/>
      <point x="-3" y="191" type="line"/>
      <point x="807" y="191" type="line"/>
      <point x="812" y="230" type="line"/>
    </contour>
  </outline>
</glyph>
<glyph name="quoteright" format="1">
  <advance width="214"/>
  <unicode hex="2019"/>
  <outline>
    <contour>
      <point x="146" y="631"/>
      <point x="112" y="603"/>
      <point x="112" y="569" type="curve" smooth="yes"/>
      <point x="112" y="554"/>
      <point x="118" y="535"/>
      <point x="139" y="535" type="curve" smooth="yes"/>
      <point x="155" y="535"/>
      <point x="169" y="530"/>
      <point x="169" y="511" type="curve" smooth="yes"/>
      <point x="169" y="478"/>
      <point x="122" y="422"/>
      <point x="87" y="391" type="curve"/>
      <point x="104" y="379" type="line"/>
      <point x="155" y="412"/>
      <point x="237" y="483"/>
      <point x="237" y="565" type="curve" smooth="yes"/>
      <point x="237" y="607"/>
      <point x="217" y="631"/>
      <point x="178" y="631" type="curve" smooth="yes"/>
    </contour>
  </outline>
</glyph>
<glyph name="dagger" format="1">
  <advance width="513"/>
  <unicode hex="2020"/>
  <outline>
    <contour>
      <point x="264" y="409" type="line"/>
      <point x="257" y="334"/>
      <point x="213" y="344"/>
      <point x="213" y="284" type="curve" smooth="yes"/>
      <point x="213" y="259"/>
      <point x="210" y="219"/>
      <point x="206" y="170" type="curve" smooth="yes"/>
      <point x="184" y="-103"/>
      <point x="199" y="-150"/>
      <point x="210" y="-150" type="curve" smooth="yes"/>
      <point x="243" y="-150"/>
      <point x="271" y="26"/>
      <point x="290" y="169" type="curve" smooth="yes"/>
      <point x="301" y="250"/>
      <point x="314" y="278"/>
      <point x="314" y="304" type="curve" smooth="yes"/>
      <point x="314" y="329"/>
      <point x="284" y="347"/>
      <point x="295" y="409" type="curve"/>
    </contour>
    <contour>
      <point x="394" y="458"/>
      <point x="369" y="413"/>
      <point x="285" y="416" type="curve"/>
      <point x="276" y="416" type="line"/>
      <point x="172" y="416"/>
      <point x="180" y="458"/>
      <point x="128" y="458" type="curve" smooth="yes"/>
      <point x="92" y="458"/>
      <point x="60" y="434"/>
      <point x="60" y="396" type="curve" smooth="yes"/>
      <point x="60" y="374"/>
      <point x="69" y="358"/>
      <point x="94" y="358" type="curve" smooth="yes"/>
      <point x="123" y="358"/>
      <point x="129" y="397"/>
      <point x="159" y="397" type="curve" smooth="yes"/>
      <point x="182" y="397"/>
      <point x="200" y="390"/>
      <point x="224" y="390" type="curve" smooth="yes"/>
      <point x="239" y="390"/>
      <point x="252" y="391"/>
      <point x="272" y="403" type="curve"/>
      <point x="285" y="403" type="line"/>
      <point x="301" y="391"/>
      <point x="316" y="390"/>
      <point x="330" y="390" type="curve" smooth="yes"/>
      <point x="353" y="390"/>
      <point x="375" y="397"/>
      <point x="397" y="397" type="curve" smooth="yes"/>
      <point x="429" y="397"/>
      <point x="420" y="358"/>
      <point x="450" y="358" type="curve" smooth="yes"/>
      <point x="492" y="358"/>
      <point x="498" y="392"/>
      <point x="498" y="413" type="curve" smooth="yes"/>
      <point x="498" y="439"/>
      <point x="475" y="458"/>
      <point x="445" y="458" type="curve" smooth="yes"/>
    </contour>
    <contour>
      <point x="283" y="640"/>
      <point x="259" y="621"/>
      <point x="259" y="600" type="curve" smooth="yes"/>
      <point x="259" y="579"/>
      <point x="280" y="570"/>
      <point x="280" y="548" type="curve" smooth="yes"/>
      <point x="280" y="540"/>
      <point x="258" y="493"/>
      <point x="258" y="470" type="curve" smooth="yes"/>
      <point x="258" y="458"/>
      <point x="259" y="423"/>
      <point x="262" y="407" type="curve"/>
      <point x="293" y="405" type="line"/>
      <point x="310" y="436"/>
      <point x="320" y="465"/>
      <point x="320" y="483" type="curve" smooth="yes"/>
      <point x="320" y="499"/>
      <point x="317" y="529"/>
      <point x="317" y="542" type="curve" smooth="yes"/>
      <point x="317" y="573"/>
      <point x="355" y="575"/>
      <point x="355" y="607" type="curve" smooth="yes"/>
      <point x="355" y="625"/>
      <point x="337" y="640"/>
      <point x="312" y="640" type="curve" smooth="yes"/>
    </contour>
  </outline>
</glyph>
<glyph name="perthousand" format="1">
  <advance width="859"/>
  <unicode hex="2030"/>
  <outline>
    <contour>
      <point x="364" y="274"/>
      <point x="302" y="216"/>
      <point x="302" y="105" type="curve" smooth="yes"/>
      <point x="302" y="31"/>
      <point x="339" y="-10"/>
      <point x="403" y="-10" type="curve" smooth="yes"/>
      <point x="486" y="-10"/>
      <point x="545" y="49"/>
      <point x="545" y="158" type="curve" smooth="yes"/>
      <point x="545" y="234"/>
      <point x="505" y="274"/>
      <point x="443" y="274" type="curve" smooth="yes"/>
    </contour>
    <contour>
      <point x="466" y="256"/>
      <point x="483" y="237"/>
      <point x="483" y="177" type="curve" smooth="yes"/>
      <point x="483" y="60"/>
      <point x="453" y="9"/>
      <point x="406" y="9" type="curve" smooth="yes"/>
      <point x="381" y="9"/>
      <point x="364" y="27"/>
      <point x="364" y="86" type="curve" smooth="yes"/>
      <point x="364" y="196"/>
      <point x="391" y="256"/>
      <point x="440" y="256" type="curve" smooth="yes"/>
    </contour>
    <contour>
      <point x="639" y="274"/>
      <point x="577" y="216"/>
      <point x="577" y="105" type="curve" smooth="yes"/>
      <point x="577" y="31"/>
      <point x="614" y="-10"/>
      <point x="678" y="-10" type="curve" smooth="yes"/>
      <point x="761" y="-10"/>
      <point x="821" y="49"/>
      <point x="821" y="158" type="curve" smooth="yes"/>
      <point x="821" y="233"/>
      <point x="780" y="274"/>
      <point x="718" y="274" type="curve" smooth="yes"/>
    </contour>
    <contour>
      <point x="741" y="256"/>
      <point x="758" y="237"/>
      <point x="758" y="177" type="curve" smooth="yes"/>
      <point x="758" y="60"/>
      <point x="728" y="9"/>
      <point x="681" y="9" type="curve" smooth="yes"/>
      <point x="656" y="9"/>
      <point x="639" y="27"/>
      <point x="639" y="86" type="curve" smooth="yes"/>
      <point x="639" y="196"/>
      <point x="666" y="256"/>
      <point x="715" y="256" type="curve" smooth="yes"/>
    </contour>
    <contour>
      <point x="124" y="608"/>
      <point x="63" y="549"/>
      <point x="63" y="439" type="curve" smooth="yes"/>
      <point x="63" y="365"/>
      <point x="101" y="324"/>
      <point x="164" y="324" type="curve" smooth="yes"/>
      <point x="246" y="324"/>
      <point x="307" y="383"/>
      <point x="307" y="492" type="curve" smooth="yes"/>
      <point x="307" y="567"/>
      <point x="266" y="608"/>
      <point x="204" y="608" type="curve" smooth="yes"/>
    </contour>
    <contour>
      <point x="227" y="590"/>
      <point x="244" y="571"/>
      <point x="244" y="512" type="curve" smooth="yes"/>
      <point x="244" y="396"/>
      <point x="216" y="343"/>
      <point x="167" y="343" type="curve" smooth="yes"/>
      <point x="142" y="343"/>
      <point x="125" y="361"/>
      <point x="125" y="421" type="curve" smooth="yes"/>
      <point x="125" y="534"/>
      <point x="154" y="590"/>
      <point x="202" y="590" type="curve" smooth="yes"/>
    </contour>
    <component base="fraction" xOffset="214"/>
  </outline>
</glyph>
<glyph name="fraction" format="1">
  <advance width="124"/>
  <unicode hex="2044"/>
  <outline>
    <contour>
      <point x="-161" y="19" type="line"/>
      <point x="-130" y="-5" type="line"/>
      <point x="357" y="586" type="line"/>
      <point x="325" y="607" type="line"/>
    </contour>
  </outline>
</glyph>
<glyph name="euro" format="1">
  <advance width="453"/>
  <unicode hex="20AC"/>
  <outline>
    <contour>
      <point x="134" y="607"/>
      <point x="62" y="367"/>
      <point x="62" y="230" type="curve"/>
      <point x="59" y="81"/>
      <point x="130" y="-10"/>
      <point x="248" y="-10" type="curve"/>
      <point x="309" y="-13"/>
      <point x="363" y="35"/>
      <point x="414" y="35" type="curve" smooth="yes"/>
      <point x="420" y="35" type="line"/>
      <point x="420" y="45" type="line"/>
      <point x="422" y="92"/>
      <point x="437" y="144"/>
      <point x="441" y="167" type="curve"/>
      <point x="417" y="167" type="line"/>
      <point x="392" y="82"/>
      <point x="326" y="17"/>
      <point x="256" y="17" type="curve" smooth="yes"/>
      <point x="181" y="17"/>
      <point x="139" y="99"/>
      <point x="142" y="232" type="curve"/>
      <point x="142" y="378"/>
      <point x="221" y="582"/>
      <point x="331" y="582" type="curve" smooth="yes"/>
      <point x="398" y="582"/>
      <point x="448" y="515"/>
      <point x="451" y="433" type="curve"/>
      <point x="472" y="433" type="line"/>
      <point x="472" y="461"/>
      <point x="482" y="525"/>
      <point x="491" y="564" type="curve"/>
      <point x="442" y="564"/>
      <point x="404" y="607"/>
      <point x="339" y="607" type="curve" smooth="yes"/>
    </contour>
    <contour>
      <point x="18" y="258" type="line"/>
      <point x="2" y="217" type="line"/>
      <point x="363" y="217" type="line"/>
      <point x="379" y="258" type="line"/>
    </contour>
    <contour>
      <point x="34" y="372" type="line"/>
      <point x="18" y="331" type="line"/>
      <point x="379" y="331" type="line"/>
      <point x="395" y="372" type="line"/>
    </contour>
  </outline>
</glyph>
<glyph name="literSign" format="1">
  <advance width="373"/>
  <unicode hex="2113"/>
  <outline>
    <contour>
      <point x="131" y="263" type="line"/>
      <point x="90" y="240"/>
      <point x="42" y="218"/>
      <point x="-14" y="196" type="curve"/>
      <point x="-8" y="166" type="line"/>
      <point x="44" y="186"/>
      <point x="90" y="207"/>
      <point x="131" y="229" type="curve"/>
    </contour>
    <contour>
      <point x="130" y="224" type="line"/>
      <point x="338" y="336"/>
      <point x="367" y="462"/>
      <point x="367" y="522" type="curve" smooth="yes"/>
      <point x="367" y="579"/>
      <point x="337" y="607"/>
      <point x="285" y="607" type="curve" smooth="yes"/>
      <point x="181" y="607"/>
      <point x="129" y="512"/>
      <point x="106" y="387" type="curve" smooth="yes"/>
      <point x="60" y="132"/>
      <point x="56" y="116"/>
      <point x="56" y="86" type="curve" smooth="yes"/>
      <point x="56" y="22"/>
      <point x="88" y="-6"/>
      <point x="157" y="-6" type="curve" smooth="yes"/>
      <point x="217" y="-6"/>
      <point x="255" y="26"/>
      <point x="292" y="90" type="curve"/>
      <point x="273" y="100" type="line"/>
      <point x="243" y="47"/>
      <point x="210" y="23"/>
      <point x="183" y="23" type="curve" smooth="yes"/>
      <point x="154" y="23"/>
      <point x="140" y="36"/>
      <point x="140" y="73" type="curve" smooth="yes"/>
      <point x="140" y="98"/>
      <point x="144" y="123"/>
      <point x="187" y="360" type="curve" smooth="yes"/>
      <point x="190" y="376"/>
      <point x="195" y="413"/>
      <point x="198" y="446" type="curve" smooth="yes"/>
      <point x="204" y="487"/>
      <point x="215" y="580"/>
      <point x="280" y="580" type="curve" smooth="yes"/>
      <point x="307" y="580"/>
      <point x="325" y="562"/>
      <point x="325" y="522" type="curve" smooth="yes"/>
      <point x="325" y="441"/>
      <point x="289" y="346"/>
      <point x="130" y="258" type="curve"/>
    </contour>
  </outline>
</glyph>
<glyph name="trademark" format="1">
  <advance width="758"/>
  <unicode hex="2122"/>
  <outline>
    <contour>
      <point x="568" y="399" type="line"/>
      <point x="496" y="597" type="line"/>
      <point x="382" y="597" type="line"/>
      <point x="379" y="577" type="line"/>
      <point x="403" y="580"/>
      <point x="405" y="576"/>
      <point x="403" y="568" type="curve" smooth="yes"/>
      <point x="371" y="339" type="line" smooth="yes"/>
      <point x="370" y="332"/>
      <point x="367" y="328"/>
      <point x="360" y="328" type="curve"/>
      <point x="341" y="329" type="line"/>
      <point x="338" y="310" type="line"/>
      <point x="423" y="310" type="line"/>
      <point x="426" y="329" type="line"/>
      <point x="394" y="328"/>
      <point x="393" y="329"/>
      <point x="393" y="337" type="curve" smooth="yes"/>
      <point x="393" y="344"/>
      <point x="404" y="415"/>
      <point x="424" y="563" type="curve"/>
      <point x="517" y="305" type="line"/>
      <point x="534" y="305" type="line"/>
      <point x="682" y="547" type="line"/>
      <point x="653" y="339" type="line" smooth="yes"/>
      <point x="652" y="332"/>
      <point x="648" y="328"/>
      <point x="642" y="328" type="curve" smooth="yes"/>
      <point x="617" y="328" type="line"/>
      <point x="614" y="310" type="line"/>
      <point x="754" y="310" type="line"/>
      <point x="757" y="329" type="line"/>
      <point x="740" y="328" type="line"/>
      <point x="734" y="328"/>
      <point x="731" y="331"/>
      <point x="731" y="337" type="curve" smooth="yes"/>
      <point x="731" y="338"/>
      <point x="744" y="430"/>
      <point x="763" y="568" type="curve"/>
      <point x="764" y="573"/>
      <point x="769" y="578"/>
      <point x="775" y="578" type="curve"/>
      <point x="789" y="577" type="line"/>
      <point x="792" y="597" type="line"/>
      <point x="690" y="597" type="line"/>
    </contour>
    <contour>
      <point x="65" y="597" type="line"/>
      <point x="54" y="523" type="line"/>
      <point x="72" y="523" type="line"/>
      <point x="77" y="560"/>
      <point x="97" y="578"/>
      <point x="142" y="578" type="curve" smooth="yes"/>
      <point x="156" y="578" type="line" smooth="yes"/>
      <point x="160" y="578"/>
      <point x="162" y="576"/>
      <point x="161" y="572" type="curve"/>
      <point x="128" y="340" type="line"/>
      <point x="128" y="334"/>
      <point x="124" y="328"/>
      <point x="118" y="328" type="curve" smooth="yes"/>
      <point x="91" y="328" type="line"/>
      <point x="88" y="310" type="line"/>
      <point x="239" y="310" type="line"/>
      <point x="242" y="329" type="line"/>
      <point x="216" y="329" type="line"/>
      <point x="210" y="328"/>
      <point x="207" y="331"/>
      <point x="207" y="337" type="curve" smooth="yes"/>
      <point x="207" y="337"/>
      <point x="207" y="338"/>
      <point x="207" y="339" type="curve" smooth="yes"/>
      <point x="240" y="573" type="line"/>
      <point x="241" y="576"/>
      <point x="243" y="578"/>
      <point x="247" y="578" type="curve" smooth="yes"/>
      <point x="262" y="578" type="line" smooth="yes"/>
      <point x="313" y="578"/>
      <point x="321" y="551"/>
      <point x="315" y="523" type="curve"/>
      <point x="334" y="523" type="line"/>
      <point x="345" y="597" type="line"/>
    </contour>
  </outline>
</glyph>
<glyph name="partialdiff" format="1">
  <advance width="448"/>
  <unicode hex="2202"/>
  <outline>
    <contour>
      <point x="203" y="605"/>
      <point x="116" y="574"/>
      <point x="116" y="512" type="curve" smooth="yes"/>
      <point x="116" y="486"/>
      <point x="135" y="473"/>
      <point x="158" y="473" type="curve" smooth="yes"/>
      <point x="177" y="473"/>
      <point x="197" y="482"/>
      <point x="197" y="504" type="curve" smooth="yes"/>
      <point x="197" y="514"/>
      <point x="192" y="521"/>
      <point x="192" y="532" type="curve" smooth="yes"/>
      <point x="192" y="563"/>
      <point x="227" y="578"/>
      <point x="259" y="578" type="curve" smooth="yes"/>
      <point x="319" y="578"/>
      <point x="351" y="512"/>
      <point x="351" y="414" type="curve" smooth="yes"/>
      <point x="351" y="323"/>
      <point x="282" y="16"/>
      <point x="171" y="16" type="curve" smooth="yes"/>
      <point x="132" y="16"/>
      <point x="109" y="57"/>
      <point x="109" y="114" type="curve" smooth="yes"/>
      <point x="109" y="222"/>
      <point x="175" y="288"/>
      <point x="244" y="288" type="curve" smooth="yes"/>
      <point x="278" y="288"/>
      <point x="310" y="269"/>
      <point x="328" y="241" type="curve"/>
      <point x="342" y="280" type="line"/>
      <point x="304" y="316"/>
      <point x="253" y="325"/>
      <point x="217" y="325" type="curve" smooth="yes"/>
      <point x="112" y="325"/>
      <point x="24" y="247"/>
      <point x="24" y="131" type="curve" smooth="yes"/>
      <point x="24" y="23"/>
      <point x="115" y="-11"/>
      <point x="180" y="-11" type="curve" smooth="yes"/>
      <point x="386" y="-11"/>
      <point x="435" y="299"/>
      <point x="435" y="386" type="curve" smooth="yes"/>
      <point x="435" y="528"/>
      <point x="367" y="605"/>
      <point x="268" y="605" type="curve" smooth="yes"/>
    </contour>
  </outline>
</glyph>
<glyph name="product" format="1">
  <advance width="613"/>
  <unicode hex="220F"/>
  <outline>
    <contour>
      <point x="102" y="597" type="line"/>
      <point x="97" y="567" type="line"/>
      <point x="137" y="569" type="line" smooth="yes"/>
      <point x="150" y="570"/>
      <point x="153" y="559"/>
      <point x="151" y="548" type="curve" smooth="yes"/>
      <point x="70" y="-31" type="line" smooth="yes"/>
      <point x="68" y="-46"/>
      <point x="61" y="-53"/>
      <point x="50" y="-53" type="curve" smooth="yes"/>
      <point x="11" y="-51" type="line"/>
      <point x="7" y="-80" type="line"/>
      <point x="222" y="-80" type="line"/>
      <point x="226" y="-51" type="line"/>
      <point x="177" y="-53" type="line" smooth="yes"/>
      <point x="166" y="-53"/>
      <point x="160" y="-46"/>
      <point x="162" y="-31" type="curve" smooth="yes"/>
      <point x="245" y="566" type="line"/>
      <point x="466" y="566" type="line"/>
      <point x="383" y="-31" type="line" smooth="yes"/>
      <point x="381" y="-46"/>
      <point x="375" y="-53"/>
      <point x="364" y="-53" type="curve" smooth="yes"/>
      <point x="315" y="-51" type="line"/>
      <point x="311" y="-80" type="line"/>
      <point x="525" y="-80" type="line"/>
      <point x="529" y="-51" type="line"/>
      <point x="490" y="-53" type="line" smooth="yes"/>
      <point x="478" y="-53"/>
      <point x="474" y="-46"/>
      <point x="476" y="-31" type="curve" smooth="yes"/>
      <point x="557" y="548" type="line" smooth="yes"/>
      <point x="559" y="561"/>
      <point x="565" y="569"/>
      <point x="577" y="569" type="curve" smooth="yes"/>
      <point x="616" y="567" type="line"/>
      <point x="620" y="597" type="line"/>
    </contour>
  </outline>
</glyph>
<glyph name="integral" format="1">
  <advance width="413"/>
  <unicode hex="222B"/>
  <outline>
    <contour>
      <point x="286" y="779"/>
      <point x="223" y="661"/>
      <point x="202" y="514" type="curve" smooth="yes"/>
      <point x="183" y="377"/>
      <point x="170" y="100"/>
      <point x="163" y="52" type="curve" smooth="yes"/>
      <point x="144" y="-80"/>
      <point x="128" y="-136"/>
      <point x="102" y="-136" type="curve" smooth="yes"/>
      <point x="83" y="-136"/>
      <point x="81" y="-131"/>
      <point x="86" y="-96" type="curve" smooth="yes"/>
      <point x="88" y="-80"/>
      <point x="88" y="-65"/>
      <point x="58" y="-65" type="curve" smooth="yes"/>
      <point x="19" y="-65"/>
      <point x="3" y="-92"/>
      <point x="3" y="-116" type="curve" smooth="yes"/>
      <point x="3" y="-150"/>
      <point x="35" y="-167"/>
      <point x="74" y="-167" type="curve" smooth="yes"/>
      <point x="162" y="-167"/>
      <point x="226" y="-49"/>
      <point x="247" y="98" type="curve" smooth="yes"/>
      <point x="264" y="216"/>
      <point x="276" y="493"/>
      <point x="285" y="560" type="curve" smooth="yes"/>
      <point x="304" y="692"/>
      <point x="321" y="748"/>
      <point x="347" y="748" type="curve" smooth="yes"/>
      <point x="367" y="748"/>
      <point x="367" y="739"/>
      <point x="362" y="708" type="curve" smooth="yes"/>
      <point x="359" y="692"/>
      <point x="361" y="677"/>
      <point x="391" y="677" type="curve" smooth="yes"/>
      <point x="430" y="677"/>
      <point x="446" y="704"/>
      <point x="446" y="727" type="curve" smooth="yes"/>
      <point x="446" y="762"/>
      <point x="413" y="779"/>
      <point x="374" y="779" type="curve" smooth="yes"/>
    </contour>
  </outline>
</glyph>
<glyph name="notequal" format="1">
  <advance width="447"/>
  <unicode hex="2260"/>
  <outline>
    <contour>
      <point x="93" y="7" type="line"/>
      <point x="132" y="-5" type="line"/>
      <point x="344" y="445" type="line"/>
      <point x="306" y="454" type="line"/>
    </contour>
    <component base="equal"/>
  </outline>
</glyph>
<glyph name="greaterequal" format="1">
  <advance width="447"/>
  <unicode hex="2265"/>
  <outline>
    <contour>
      <point x="83" y="432" type="line"/>
      <point x="292" y="325" type="line"/>
      <point x="356" y="298" type="line"/>
      <point x="284" y="272" type="line"/>
      <point x="45" y="166" type="line"/>
      <point x="39" y="119" type="line"/>
      <point x="405" y="287" type="line"/>
      <point x="409" y="311" type="line"/>
      <point x="89" y="478" type="line"/>
    </contour>
    <contour>
      <point x="28" y="41" type="line"/>
      <point x="22" y="0" type="line"/>
      <point x="365" y="0" type="line"/>
      <point x="371" y="41" type="line"/>
    </contour>
  </outline>
</glyph>
<glyph name="lozenge" format="1">
  <advance width="448"/>
  <unicode hex="25CA"/>
  <outline>
    <contour>
      <point x="267" y="645" type="line"/>
      <point x="19" y="286" type="line"/>
      <point x="170" y="-79" type="line"/>
      <point x="200" y="-79" type="line"/>
      <point x="448" y="281" type="line"/>
      <point x="297" y="645" type="line"/>
    </contour>
    <contour>
      <point x="288" y="550" type="line"/>
      <point x="397" y="281" type="line"/>
      <point x="216" y="17" type="line"/>
      <point x="192" y="-23" type="line"/>
      <point x="180" y="16" type="line"/>
      <point x="70" y="285" type="line"/>
      <point x="251" y="549" type="line"/>
      <point x="276" y="589" type="line"/>
    </contour>
  </outline>
</glyph>
<glyph name="fi" format="1">
  <advance width="547"/>
  <unicode hex="FB01"/>
  <outline>
    <contour>
      <point x="230" y="701"/>
      <point x="138" y="585"/>
      <point x="121" y="440" type="curve" smooth="yes"/>
      <point x="80" y="72" type="line" smooth="yes"/>
      <point x="58" y="-123"/>
      <point x="34" y="-218"/>
      <point x="-29" y="-218" type="curve" smooth="yes"/>
      <point x="-48" y="-218"/>
      <point x="-60" y="-209"/>
      <point x="-60" y="-193" type="curve" smooth="yes"/>
      <point x="-60" y="-182"/>
      <point x="-54" y="-174"/>
      <point x="-54" y="-162" type="curve" smooth="yes"/>
      <point x="-54" y="-141"/>
      <point x="-73" y="-134"/>
      <point x="-91" y="-134" type="curve" smooth="yes"/>
      <point x="-123" y="-134"/>
      <point x="-136" y="-157"/>
      <point x="-136" y="-178" type="curve" smooth="yes"/>
      <point x="-136" y="-219"/>
      <point x="-89" y="-245"/>
      <point x="-37" y="-245" type="curve" smooth="yes"/>
      <point x="90" y="-245"/>
      <point x="148" y="-94"/>
      <point x="170" y="102" type="curve" smooth="yes"/>
      <point x="209" y="454" type="line" smooth="yes"/>
      <point x="227" y="630"/>
      <point x="294" y="673"/>
      <point x="359" y="673" type="curve" smooth="yes"/>
      <point x="400" y="673"/>
      <point x="410" y="656"/>
      <point x="410" y="626" type="curve" smooth="yes"/>
      <point x="410" y="600"/>
      <point x="430" y="585"/>
      <point x="458" y="585" type="curve" smooth="yes"/>
      <point x="494" y="585"/>
      <point x="519" y="605"/>
      <point x="519" y="639" type="curve" smooth="yes"/>
      <point x="519" y="687"/>
      <point x="463" y="701"/>
      <point x="384" y="701" type="curve" smooth="yes"/>
    </contour>
    <contour>
      <point x="56" y="420" type="line"/>
      <point x="29" y="389" type="line"/>
      <point x="131" y="389" type="line"/>
      <point x="139" y="420" type="line"/>
    </contour>
    <contour>
      <point x="203" y="420" type="line"/>
      <point x="197" y="389" type="line"/>
      <point x="281" y="389" type="line"/>
      <point x="310" y="405" type="line"/>
      <point x="310" y="420" type="line"/>
    </contour>
    <component base="dotlessi" xOffset="287"/>
  </outline>
</glyph>
<glyph name="caron.alt" format="1">
  <advance width="326"/>
  <outline>
    <contour>
      <point x="163" y="607"/>
      <point x="148" y="582"/>
      <point x="148" y="560" type="curve" smooth="yes"/>
      <point x="148" y="544"/>
      <point x="158" y="530"/>
      <point x="174" y="530" type="curve" smooth="yes"/>
      <point x="182" y="530"/>
      <point x="190" y="526"/>
      <point x="188" y="511" type="curve" smooth="yes"/>
      <point x="186" y="493"/>
      <point x="164" y="467"/>
      <point x="141" y="451" type="curve"/>
      <point x="155" y="438" type="line"/>
      <point x="197" y="457"/>
      <point x="244" y="502"/>
      <point x="244" y="554" type="curve" smooth="yes"/>
      <point x="244" y="582"/>
      <point x="226" y="607"/>
      <point x="196" y="607" type="curve" smooth="yes"/>
    </contour>
    <contour>
      <point x="190" y="598" type="move" name="_topright"/>
    </contour>
  </outline>
</glyph>
<glyph name="dieresis.case" format="1">
  <advance width="282"/>
  <outline>
    <component base="dieresis" xOffset="19" yOffset="129"/>
    <contour>
      <point x="196" y="598" type="move" name="_top"/>
    </contour>
  </outline>
</glyph>
<glyph name="f.ss02" format="1">
  <advance width="284"/>
  <outline>
    <contour>
      <point x="226" y="701"/>
      <point x="137" y="585"/>
      <point x="121" y="440" type="curve" smooth="yes"/>
      <point x="80" y="72" type="line" smooth="yes"/>
      <point x="58" y="-123"/>
      <point x="34" y="-218"/>
      <point x="-29" y="-218" type="curve" smooth="yes"/>
      <point x="-48" y="-218"/>
      <point x="-60" y="-209"/>
      <point x="-60" y="-193" type="curve" smooth="yes"/>
      <point x="-60" y="-182"/>
      <point x="-54" y="-174"/>
      <point x="-54" y="-162" type="curve" smooth="yes"/>
      <point x="-54" y="-141"/>
      <point x="-73" y="-134"/>
      <point x="-91" y="-134" type="curve" smooth="yes"/>
      <point x="-123" y="-134"/>
      <point x="-136" y="-157"/>
      <point x="-136" y="-178" type="curve" smooth="yes"/>
      <point x="-136" y="-219"/>
      <point x="-89" y="-245"/>
      <point x="-37" y="-245" type="curve" smooth="yes"/>
      <point x="90" y="-245"/>
      <point x="148" y="-94"/>
      <point x="170" y="102" type="curve" smooth="yes"/>
      <point x="209" y="454" type="line" smooth="yes"/>
      <point x="228" y="630"/>
      <point x="300" y="673"/>
      <point x="369" y="673" type="curve" smooth="yes"/>
      <point x="407" y="673"/>
      <point x="417" y="664"/>
      <point x="417" y="648" type="curve" smooth="yes"/>
      <point x="417" y="614"/>
      <point x="430" y="610"/>
      <point x="473" y="610" type="curve"/>
      <point x="473" y="661"/>
      <point x="433" y="701"/>
      <point x="374" y="701" type="curve" smooth="yes"/>
    </contour>
    <contour>
      <point x="56" y="420" type="line"/>
      <point x="29" y="389" type="line"/>
      <point x="131" y="389" type="line"/>
      <point x="139" y="420" type="line"/>
    </contour>
    <contour>
      <point x="203" y="420" type="line"/>
      <point x="197" y="389" type="line"/>
      <point x="281" y="389" type="line"/>
      <point x="310" y="405" type="line"/>
      <point x="310" y="420" type="line"/>
    </contour>
  </outline>
</glyph>
<glyph name="f_j.ss01" format="1">
  <advance width="528"/>
  <outline>
    <contour>
      <point x="229" y="701"/>
      <point x="140" y="585"/>
      <point x="123" y="440" type="curve" smooth="yes"/>
      <point x="97" y="214"/>
      <point x="68" y="-13"/>
      <point x="36" y="-239" type="curve"/>
      <point x="118" y="-209" type="line"/>
      <point x="208" y="454" type="line" smooth="yes"/>
      <point x="232" y="629"/>
      <point x="293" y="673"/>
      <point x="358" y="673" type="curve" smooth="yes"/>
      <point x="399" y="673"/>
      <point x="409" y="656"/>
      <point x="409" y="626" type="curve" smooth="yes"/>
      <point x="409" y="600"/>
      <point x="429" y="585"/>
      <point x="457" y="585" type="curve" smooth="yes"/>
      <point x="493" y="585"/>
      <point x="518" y="605"/>
      <point x="518" y="639" type="curve" smooth="yes"/>
      <point x="518" y="687"/>
      <point x="462" y="701"/>
      <point x="383" y="701" type="curve" smooth="yes"/>
    </contour>
    <contour>
      <point x="55" y="420" type="line"/>
      <point x="28" y="389" type="line"/>
      <point x="130" y="389" type="line"/>
      <point x="138" y="420" type="line"/>
    </contour>
    <contour>
      <point x="202" y="420" type="line"/>
      <point x="196" y="389" type="line"/>
      <point x="280" y="389" type="line"/>
      <point x="309" y="405" type="line"/>
      <point x="309" y="420" type="line"/>
    </contour>
    <component base="dotlessj" xOffset="283"/>
  </outline>
</glyph>
<glyph name="y.ss01" format="1">
  <advance width="412"/>
  <outline>
    <contour>
      <point x="304" y="429"/>
      <point x="287" y="412"/>
      <point x="287" y="381" type="curve" smooth="yes"/>
      <point x="287" y="357"/>
      <point x="298" y="340"/>
      <point x="315" y="339" type="curve" smooth="yes"/>
      <point x="342" y="337"/>
      <point x="348" y="336"/>
      <point x="348" y="313" type="curve" smooth="yes"/>
      <point x="348" y="234"/>
      <point x="280" y="149"/>
      <point x="217" y="78" type="curve"/>
      <point x="153" y="368" type="line" smooth="yes"/>
      <point x="143" y="415"/>
      <point x="127" y="426"/>
      <point x="104" y="426" type="curve" smooth="yes"/>
      <point x="80" y="426"/>
      <point x="39" y="413"/>
      <point x="11" y="400" type="curve"/>
      <point x="16" y="371" type="line"/>
      <point x="26" y="373"/>
      <point x="34" y="374"/>
      <point x="41" y="374" type="curve" smooth="yes"/>
      <point x="59" y="374"/>
      <point x="68" y="366"/>
      <point x="74" y="341" type="curve" smooth="yes"/>
      <point x="154" y="15" type="line"/>
      <point x="49" y="-88"/>
      <point x="14" y="-153"/>
      <point x="14" y="-200" type="curve" smooth="yes"/>
      <point x="14" y="-211"/>
      <point x="16" y="-249"/>
      <point x="55" y="-249" type="curve" smooth="yes"/>
      <point x="83" y="-249"/>
      <point x="108" y="-229"/>
      <point x="108" y="-201" type="curve" smooth="yes"/>
      <point x="108" y="-169"/>
      <point x="77" y="-174"/>
      <point x="77" y="-147" type="curve" smooth="yes"/>
      <point x="77" y="-104"/>
      <point x="156" y="-36"/>
      <point x="226" y="41" type="curve" smooth="yes"/>
      <point x="313" y="137"/>
      <point x="404" y="269"/>
      <point x="404" y="362" type="curve" smooth="yes"/>
      <point x="404" y="409"/>
      <point x="381" y="429"/>
      <point x="341" y="429" type="curve" smooth="yes"/>
    </contour>
    <contour>
      <point x="239" y="420" type="move" name="top"/>
    </contour>
  </outline>
</glyph>
